<svg width="48" height="48" viewBox="0 0 48 48" fill="none" xmlns="http://www.w3.org/2000/svg">
<path d="M24.312 25.5469L19.0029 40.9717C20.5879 41.4384 22.2638 41.6938 24.001 41.6938C26.0604 41.6938 28.0371 41.3379 29.8764 40.6904C29.8284 40.6143 29.785 40.5331 29.7508 40.4458L24.312 25.5469Z" fill="white"/>
<path d="M35.9454 23.1071C35.9454 20.9196 35.1605 19.4055 34.4875 18.2265C33.5898 16.7691 32.7493 15.5349 32.7493 14.077C32.7493 12.4506 33.9825 10.9366 35.7207 10.9366C35.7978 10.9366 35.8734 10.9473 35.9494 10.9509C32.8008 8.06783 28.608 6.30664 24.002 6.30664C17.8197 6.30664 12.382 9.47821 9.21855 14.2813C9.6337 14.294 10.0248 14.3022 10.3573 14.3022C12.2078 14.3022 15.072 14.0786 15.072 14.0786C16.0259 14.0219 16.1387 15.4231 15.1864 15.5359C15.1864 15.5359 14.2274 15.6488 13.1607 15.7044L19.6034 34.8692L23.4761 23.2573L20.7197 15.7039C19.7668 15.6477 18.8645 15.5354 18.8645 15.5354C17.9106 15.4792 18.023 14.0219 18.9753 14.0775C18.9753 14.0775 21.8972 14.3022 23.6359 14.3022C25.486 14.3022 28.3517 14.0775 28.3517 14.0775C29.306 14.0224 29.4179 15.4231 28.465 15.5354C28.465 15.5354 27.504 15.6477 26.4398 15.7039L32.833 34.7237L34.5988 28.8263C35.3627 26.3788 35.9454 24.6217 35.9454 23.1071Z" fill="white"/>
<path d="M6.30689 24.0004C6.30689 31.0027 10.3777 37.0548 16.2791 39.9236L7.83931 16.7988C6.85736 18.9997 6.30689 21.4349 6.30689 24.0004Z" fill="white"/>
<path d="M32.8953 39.2927C38.1564 36.2248 41.6936 30.5271 41.6936 23.9996C41.6936 20.923 40.9077 18.0308 39.5254 15.5098C39.602 16.074 39.6449 16.6786 39.6449 17.3292C39.6449 19.1246 39.31 21.1426 38.2994 23.6667L32.8953 39.2927Z" fill="white"/>
<path d="M45.4468 0H2.55319C1.14332 0 0 1.14332 0 2.55319V45.4468C0 46.8567 1.14332 48 2.55319 48H45.4468C46.8572 48 48 46.8567 48 45.4468V2.55319C48 1.14332 46.8572 0 45.4468 0ZM24.001 43.6795C13.1494 43.6795 4.32102 34.8511 4.32102 23.9995C4.32102 13.1479 13.1489 4.32051 24.001 4.32051C34.8521 4.32051 43.6785 13.1479 43.6785 23.9995C43.6785 34.8511 34.8521 43.6795 24.001 43.6795Z" fill="white"/>
</svg>
