<svg width="48" height="57" viewBox="0 0 48 57" fill="none" xmlns="http://www.w3.org/2000/svg">
<g clip-path="url(#clip0)">
<path d="M46.7376 43.3446H46.4V11.308C46.4 9.22938 44.9647 7.53906 43.2 7.53906H4.8C3.03516 7.53906 1.60003 9.22949 1.60003 11.308V43.3446H1.26244C0.566437 43.3446 0 44.0117 0 44.8315V47.5113C0 48.3311 0.566437 48.9982 1.26244 48.9982H46.7377C47.4337 48.9982 48.0001 48.3311 48.0001 47.5113V44.8315C48 44.0117 47.4336 43.3446 46.7376 43.3446ZM4.8 12.2503C4.8 11.7302 5.15841 11.308 5.59997 11.308H42.3999C42.8423 11.308 43.1999 11.7302 43.1999 12.2503V40.5178C43.1999 41.0379 42.8423 41.46 42.3999 41.46H5.59997C5.15841 41.46 4.8 41.0379 4.8 40.5178V12.2503ZM46.4 47.1137H1.60003V45.2291H19.6064C19.9784 45.8105 20.5648 46.1713 21.2 46.1713H27.6C28.2352 46.1713 28.8216 45.8105 29.1936 45.2291H46.4V47.1137Z" fill="white"/>
<path d="M32.2 23.5566H31.2V25.9117H32.2C32.7512 25.9117 33.2001 25.3833 33.2001 24.7341C33.2001 24.085 32.7512 23.5566 32.2 23.5566Z" fill="white"/>
<path d="M16.2 23.5566H15.2V25.9117H16.2C16.7512 25.9117 17.2 25.3833 17.2 24.7341C17.2 24.085 16.7512 23.5566 16.2 23.5566Z" fill="white"/>
<path d="M41.6 13.1934H6.40003V39.5764H41.6001V13.1934H41.6ZM16.2 27.7982H15.2V30.1538C15.2 30.6739 14.8416 31.096 14.4 31.096C13.9584 31.096 13.6 30.6739 13.6 30.1538V22.6158C13.6 22.0958 13.9584 21.6736 14.4 21.6736H16.2C17.6336 21.6736 18.8 23.0475 18.8 24.7359C18.8 26.4244 17.6336 27.7982 16.2 27.7982ZM27.2 30.1539C27.2 30.674 26.8416 31.0961 26.4 31.0961C25.9584 31.0961 25.6 30.674 25.6 30.1539V27.3271H22.4001V30.1539C22.4001 30.674 22.0417 31.0961 21.6001 31.0961C21.1585 31.0961 20.8001 30.674 20.8001 30.1539V22.6158C20.8001 22.0958 21.1585 21.6736 21.6001 21.6736C22.0417 21.6736 22.4001 22.0958 22.4001 22.6158V25.4426H25.6V22.6158C25.6 22.0958 25.9584 21.6736 26.4 21.6736C26.8416 21.6736 27.2 22.0958 27.2 22.6158V30.1539ZM32.2 27.7982H31.2V30.1538C31.2 30.6739 30.8416 31.096 30.4 31.096C29.9585 31.096 29.6001 30.6739 29.6001 30.1538V22.6158C29.6001 22.0958 29.9585 21.6736 30.4 21.6736H32.2C33.6337 21.6736 34.8 23.0475 34.8 24.7359C34.8 26.4244 33.6336 27.7982 32.2 27.7982Z" fill="white"/>
</g>
<defs>
<clipPath id="clip0">
<rect width="48" height="56.5352" fill="white"/>
</clipPath>
</defs>
</svg>
