<svg width="48" height="48" viewBox="0 0 48 48" fill="none" xmlns="http://www.w3.org/2000/svg">
<path d="M46.4643 0H1.53574C0.687551 0 0 0.687704 0 1.53574V46.4643C0 47.3123 0.687551 48 1.53574 48H46.4643C47.3124 48 48 47.3123 48 46.4643V1.53574C48 0.687704 47.3124 0 46.4643 0ZM18.5723 29.6112C17.1352 30.8688 15.2992 31.5614 13.403 31.5614C9.1418 31.5614 5.67502 28.1656 5.67502 23.9913C5.67502 19.8265 9.1418 16.4382 13.403 16.4382C15.302 16.4382 17.1316 17.125 18.5551 18.3721C19.1499 18.8933 19.2096 19.7977 18.6886 20.3925C18.1676 20.9874 17.2629 21.0475 16.668 20.5259C15.767 19.7366 14.6075 19.3018 13.403 19.3018C10.7208 19.3018 8.53871 21.4054 8.53871 23.9912C8.53871 26.5863 10.7208 28.6976 13.403 28.6976C14.6055 28.6976 15.7716 28.2565 16.6866 27.4558C17.2815 26.935 18.1862 26.9954 18.707 27.5905C19.2276 28.1859 19.1674 29.0904 18.5723 29.6112ZM25.708 31.4781C23.8124 31.4781 21.8785 30.6787 20.6609 29.3916C20.1174 28.8172 20.1426 27.911 20.717 27.3675C21.2915 26.8241 22.1977 26.849 22.7411 27.4235C23.415 28.1358 24.6073 28.6144 25.708 28.6144C26.8303 28.6144 28.1409 28.2897 28.1409 27.3747C28.1481 26.5007 27.708 26.1927 25.5246 25.5314C23.6019 24.9492 20.6964 24.0692 20.6964 20.7144C20.6964 18.2068 22.8679 16.5219 26.0999 16.5219C27.537 16.5219 29.1043 16.9579 30.1897 17.6596C30.8538 18.089 31.0441 18.9753 30.6147 19.6395C30.1854 20.3037 29.2988 20.494 28.6348 20.0647C28.0165 19.6648 26.974 19.3856 26.0997 19.3856C24.9281 19.3856 23.5601 19.7338 23.5601 20.7144C23.5601 21.7829 24.1896 22.1349 26.3545 22.7907C28.2168 23.3548 31.0307 24.2069 31.0044 27.3867C31.0047 29.829 28.8762 31.4781 25.708 31.4781ZM37.0281 31.4781C35.1323 31.4781 33.1985 30.6787 31.981 29.3916C31.4375 28.8172 31.4625 27.911 32.0371 27.3675C32.6116 26.8241 33.5178 26.849 34.0612 27.4235C34.735 28.1358 35.9274 28.6144 37.0281 28.6144C38.1504 28.6144 39.461 28.2897 39.461 27.3747C39.4682 26.5007 39.0282 26.1927 36.8448 25.5314C34.9221 24.9492 32.0166 24.0692 32.0166 20.7144C32.0166 18.2068 34.1882 16.5219 37.4201 16.5219C38.8573 16.5219 40.4245 16.9579 41.51 17.6596C42.174 18.089 42.3644 18.9753 41.9351 19.6395C41.5058 20.3037 40.6194 20.494 39.9552 20.0647C39.3369 19.6648 38.2944 19.3856 37.4201 19.3856C36.2485 19.3856 34.8803 19.7338 34.8803 20.7144C34.8803 21.7829 35.5098 22.1349 37.6749 22.7907C39.537 23.3548 42.3511 24.2069 42.3248 27.3867C42.3248 29.829 40.1963 31.4781 37.0281 31.4781Z" fill="white"/>
</svg>
