<svg width="48" height="48" viewBox="0 0 48 48" fill="none" xmlns="http://www.w3.org/2000/svg">
<path d="M45.0665 0H2.9366C1.31177 0 0 1.3149 0 2.9366V45.0603C0 46.6882 1.3149 48 2.9366 48H45.0634C46.6882 48 48 46.6851 48 45.0603V2.9366C48.0031 1.3149 46.6882 0 45.0665 0ZM13.9723 29.5132H11.4866V24.9048H7.37908V29.5132H4.87764V18.49H7.37908V22.7289H11.4866V18.49H13.9723V29.5132ZM23.7934 20.5813H20.7848V29.5132H18.2802V20.5813H15.3186V18.49H23.7934V20.5813ZM34.5442 29.5132L34.3814 25.2961C34.3313 23.9687 34.2844 22.3658 34.2844 20.766H34.2374C33.893 22.1717 33.4328 23.7433 33.007 25.0331L31.664 29.3379H29.7198L28.5395 25.0676C28.1795 23.7746 27.8038 22.203 27.544 20.766H27.5095C27.4438 22.2531 27.3968 23.9562 27.3123 25.3274L27.1151 29.5132H24.8077L25.5121 18.49H28.8369L29.917 22.1717C30.2583 23.4459 30.6058 24.8202 30.85 26.1132H30.9001C31.2132 24.8359 31.5888 23.3801 31.9457 22.1529L33.126 18.49H36.382L36.9862 29.5132H34.5442ZM45.7897 29.5132H38.9022V18.49H41.4067V27.425H45.7897V29.5132Z" fill="white"/>
</svg>
