<svg width="48" height="48" viewBox="0 0 48 48" fill="none" xmlns="http://www.w3.org/2000/svg">
<path d="M38.7128 18.8984C38.0094 18.8984 37.5315 18.9637 37.2792 19.0379V23.5583C37.579 23.6236 37.9411 23.6474 38.4398 23.6474C40.283 23.6474 41.4197 22.7184 41.4197 21.1483C41.4168 19.7414 40.4403 18.8984 38.7128 18.8984Z" fill="white"/>
<path d="M44.9369 0H3.06604C1.37423 0 0 1.37126 0 3.06307V44.9369C0 46.6228 1.37126 47.997 3.06604 47.997H44.9369C46.6287 47.997 48 46.6228 48 44.9369V3.06307C48 1.37126 46.6287 0 44.9369 0ZM14.5555 24.6945C13.3742 25.8076 11.6231 26.3062 9.57804 26.3062C9.12392 26.3062 8.71432 26.2825 8.39674 26.2379V31.717H4.96562V16.6035C6.03413 16.4225 7.53302 16.2859 9.64927 16.2859C11.7833 16.2859 13.3089 16.6985 14.33 17.5147C15.3094 18.2894 15.9683 19.5597 15.9683 21.0586C15.9683 22.5575 15.4667 23.8308 14.5555 24.6945ZM30.8147 31.717H27.3599V25.306H21.6582V31.717H18.1796V16.4017H21.6582V22.2874H27.3599V16.4017H30.8147V31.717ZM43.438 24.6945C42.2597 25.8076 40.5085 26.3062 38.4605 26.3062C38.0094 26.3062 37.5968 26.2825 37.2792 26.2379V31.717H33.8511V16.6035C34.9166 16.4225 36.4155 16.2859 38.5318 16.2859C40.6688 16.2859 42.1885 16.6985 43.2125 17.5147C44.1919 18.2894 44.8509 19.5597 44.8509 21.0586C44.8479 22.5575 44.3492 23.8308 43.438 24.6945Z" fill="white"/>
<path d="M9.83031 18.8984C9.12391 18.8984 8.64901 18.9637 8.39672 19.0379V23.5583C8.69353 23.6236 9.05564 23.6474 9.55725 23.6474C11.3975 23.6474 12.5342 22.7184 12.5342 21.1483C12.5342 19.7414 11.5577 18.8984 9.83031 18.8984Z" fill="white"/>
</svg>
