<svg width="90" height="90" viewBox="0 0 90 90" fill="none" xmlns="http://www.w3.org/2000/svg">
<path d="M71.3613 32.9521C71.1733 19.2305 59.9527 8.125 46.1871 8.125C40.0638 8.125 34.1644 10.3525 29.5762 14.3972C25.4812 18.0069 22.68 22.8307 21.5706 28.1268C21.4896 28.1259 21.4092 28.1252 21.3291 28.1252C9.56846 28.1254 0 37.6936 0 49.4544C0 61.2152 9.56846 70.7835 21.3293 70.7835H29.1575C30.2173 70.7835 31.0768 69.9243 31.0768 68.8642C31.0768 67.804 30.2173 66.9448 29.1575 66.9448H21.3293C11.6849 66.9448 3.8387 59.0986 3.8387 49.4544C3.8387 39.8102 11.6849 31.9641 21.3293 31.9641C21.8431 31.9641 22.3862 31.9917 22.99 32.0484C24.0134 32.1434 24.9322 31.4163 25.0716 30.3968C25.7628 25.3308 28.264 20.6714 32.1146 17.2769C36.0013 13.8505 40.999 11.9637 46.187 11.9637C57.9529 11.9637 67.5248 21.5359 67.5248 33.3016C67.5248 33.7252 67.4459 34.8207 67.4459 34.8207C67.406 35.3853 67.6173 35.9388 68.0237 36.3331C68.4296 36.7274 68.9884 36.9218 69.5525 36.8657C70.0629 36.8142 70.578 36.7884 71.0832 36.7884C79.3971 36.7884 86.1613 43.5524 86.1613 51.8665C86.1613 60.1804 79.3973 66.9445 71.0832 66.9445H62.4871C61.4273 66.9445 60.5678 67.8037 60.5678 68.8638C60.5678 69.9239 61.4273 70.7832 62.4871 70.7832H71.0832C81.5138 70.7832 90 62.2973 90 51.8665C89.9998 41.5292 81.6643 33.1015 71.3613 32.9521Z" fill="black"/>
<path d="M46.1873 17.1465C38.1615 17.1465 31.2913 23.1443 30.2064 31.0977C30.0631 32.148 30.7989 33.1125 31.8487 33.2589C32.9681 33.415 33.8786 32.5788 34.0099 31.6166C34.8364 25.5558 40.0715 20.9854 46.1873 20.9854C47.2474 20.9854 48.1067 20.1261 48.1067 19.066C48.1067 18.0057 47.2473 17.1465 46.1873 17.1465Z" fill="black"/>
<path d="M55.0685 72.119C54.3624 71.3287 53.1489 71.26 52.3583 71.9664L47.7414 76.0908V52.4779C47.7414 51.4178 46.8818 50.5586 45.822 50.5586C44.7619 50.5586 43.9027 51.4178 43.9027 52.4779V76.0906L39.286 71.9663C38.4957 71.26 37.2819 71.3287 36.576 72.1188C35.8697 72.9095 35.9379 74.1226 36.7286 74.829L43.71 81.0663C44.3121 81.6043 45.0669 81.8731 45.8219 81.8731C46.5767 81.8731 47.3317 81.6041 47.9335 81.0664L54.9154 74.8292C55.7062 74.1231 55.7746 72.9097 55.0685 72.119Z" fill="black"/>
</svg>
