<svg width="90" height="90" viewBox="0 0 90 90" fill="none" xmlns="http://www.w3.org/2000/svg">
<path d="M56.6953 43.6897L39.6264 32.8277C39.1484 32.5251 38.5433 32.5049 38.0452 32.7765C37.5502 33.0496 37.2414 33.571 37.2414 34.1373V55.8615C37.2414 56.4279 37.5502 56.9492 38.0467 57.2223C38.2795 57.3496 38.5355 57.4132 38.7931 57.4132C39.0833 57.4132 39.3734 57.331 39.6264 57.1711L56.6953 46.3091C57.1422 46.0235 57.4138 45.5301 57.4138 44.9994C57.4138 44.4687 57.1422 43.9753 56.6953 43.6897ZM40.3448 53.0358V36.963L52.9712 44.9994L40.3448 53.0358Z" fill="white"/>
<path d="M88.4483 9.31055H72.931H17.069H1.55172C0.695172 9.31055 0 10.0042 0 10.8623V27.9312V45.0002V62.0692V79.1381C0 79.9962 0.695172 80.6899 1.55172 80.6899H17.069H72.931H88.4483C89.3048 80.6899 90 79.9962 90 79.1381V62.0692V45.0002V27.9312V10.8623C90 10.0042 89.3048 9.31055 88.4483 9.31055ZM15.5172 43.4485H3.10345V29.483H15.5172V43.4485ZM3.10345 46.5519H15.5172V60.5174H3.10345V46.5519ZM18.6207 62.0692V45.0002V27.9312V12.414H71.3793V27.9312V45.0002V62.0692V77.5864H18.6207V62.0692ZM86.8966 43.4485H74.4828V29.483H86.8966V43.4485ZM74.4828 46.5519H86.8966V60.5174H74.4828V46.5519ZM86.8966 12.414V26.3795H74.4828V12.414H86.8966ZM3.10345 12.414H15.5172V26.3795H3.10345V12.414ZM3.10345 77.5864V63.6209H15.5172V77.5864H3.10345ZM86.8966 77.5864H74.4828V63.6209H86.8966V77.5864Z" fill="white"/>
</svg>
