<svg width="90" height="90" viewBox="0 0 90 90" fill="none" xmlns="http://www.w3.org/2000/svg">
<path d="M75.2698 63.9489L70.2359 58.826C69.7214 58.3015 68.9008 58.2321 68.3056 58.6627L46.3735 74.8184L38.6075 71.1656L45.4232 70.4083C46.1731 70.3177 46.7353 69.6786 46.7299 68.9234V62.5086C46.7299 61.6886 46.065 61.0237 45.245 61.0237H37.8205L25.3176 59.7467C25.0641 59.722 24.8083 59.7628 24.5752 59.8655L16.0518 63.5183H0V66.4881H16.3636C16.5676 66.4898 16.7699 66.4493 16.9576 66.3693L25.4067 62.6719L37.5978 63.9192H43.8195V67.6018L38.3254 68.2849L30.3514 67.4385C29.6331 67.3692 28.969 67.8266 28.7774 68.5225C28.584 69.2157 28.9157 69.948 29.5644 70.2598L46.032 77.8328C46.5178 78.0537 47.0846 77.9971 47.5169 77.6843L69.1074 61.8255L72.0772 64.9141L47.2645 86.5937H40.5379L16.8537 77.7883C16.6881 77.7227 16.5119 77.6875 16.3339 77.6843H0V80.6541H16.0815L39.7509 89.4745C39.9174 89.535 40.0933 89.565 40.2706 89.5636H47.8139C48.1749 89.563 48.5233 89.431 48.7939 89.1923L75.1955 66.1169C75.2206 66.095 75.2449 66.0724 75.2683 66.049C75.8487 65.4695 75.8492 64.5292 75.2698 63.9489Z" fill="white"/>
<path d="M79.2196 37.5927L71.3793 29.4405C71.1297 29.1759 70.7915 29.012 70.429 28.9802L54.392 27.4953H48.2742L48.5712 23.0406L54.3772 21.8675L62.4847 23.6791C62.6518 23.7079 62.8226 23.7079 62.9896 23.6791L70.8744 22.7436L70.5181 19.7738L62.8857 20.5905L54.7187 18.7789C54.519 18.7273 54.3096 18.7273 54.1099 18.7789L46.8784 20.2638C46.2126 20.3914 45.7178 20.9534 45.6756 21.6299L45.2005 28.8614C45.1986 28.8921 45.1977 28.9225 45.1979 28.9531C45.1994 29.7732 45.8653 30.4369 46.6854 30.4354H54.2584L69.6123 31.8312L77.512 40.1022C77.7909 40.3947 78.177 40.561 78.5811 40.5625H89.0942V37.5927H79.2196Z" fill="white"/>
<path d="M76.6358 6.67405C76.4718 6.54115 76.2784 6.44946 76.0716 6.40677L50.8282 0.467158C50.4006 0.377507 49.9553 0.480708 49.6106 0.749289L33.2767 12.6285L35.0289 15.0341L50.8134 3.55576L75.0767 9.25778L88.1884 19.4591L90 17.0684L76.6358 6.67405Z" fill="white"/>
<path d="M52.521 9.54073C52.1338 9.36663 51.6906 9.36663 51.3034 9.54073L42.394 13.9954L43.7304 16.6386L52.0459 12.4957L58.8467 15.2725L59.9455 12.5105L52.521 9.54073Z" fill="white"/>
<path d="M37.1671 25.9932L34.5537 25.6072C33.3658 25.429 32.6679 24.9686 32.6679 24.2262C32.6679 23.4837 33.7073 22.7413 35.1031 22.8155H36.1722C37.568 22.8155 38.6075 23.558 38.6075 24.2262V24.6271H41.5773V24.2262C41.5773 21.7019 39.2014 19.7715 36.1722 19.7715H35.1031C32.0739 19.7715 29.6981 21.7019 29.6981 24.2262C29.9418 26.5421 31.8278 28.3403 34.1528 28.473L36.7216 28.8591C37.9096 29.0373 38.6075 29.5718 38.6075 30.2401C38.6075 30.9083 37.568 31.6507 36.1722 31.6507H35.1031C33.7073 31.6507 32.6679 30.9083 32.6679 30.2401V29.8391H29.6981V30.2401C29.6981 32.6901 32.1333 34.6205 35.1031 34.6205H36.1722C39.2014 34.6205 41.5773 32.6901 41.6218 30.3143C41.4125 27.9693 39.5175 26.1311 37.1671 25.9932Z" fill="white"/>
<path d="M47.413 28.7558C46.873 32.7948 44.3006 36.275 40.598 37.9762C34.6365 40.7153 27.5832 38.1028 24.8441 32.1412C22.105 26.1797 24.7175 19.1264 30.679 16.3873C36.6405 13.6482 43.6938 16.2607 46.4329 22.2223L49.1206 20.9749C46.6937 15.7158 41.4303 12.3477 35.638 12.3477C27.4371 12.3475 20.7888 18.9956 20.7888 27.1965C20.7886 35.3974 27.4367 42.0455 35.6377 42.0457C43.0908 42.0587 49.399 36.5447 50.3828 29.1568L47.413 28.7558Z" fill="white"/>
<path d="M37.1226 18.2871H34.1528V21.2569H37.1226V18.2871Z" fill="white"/>
</svg>
