<svg width="1140" height="222" viewBox="0 0 1140 222" fill="none" xmlns="http://www.w3.org/2000/svg">
<path d="M54.336 63.32C54.336 56.312 50.208 48.248 37.152 46.712V46.328C45.312 44.216 51.168 38.456 51.168 28.952C51.168 15.8 37.92 14.552 30.24 14.552H8.064C6.432 14.552 4.416 14.648 4.416 16.472C4.416 17.144 4.512 17.72 5.568 17.72C6.912 17.72 8.64 18.296 8.64 22.616V74.936C8.64 79.256 6.912 79.928 5.568 79.928C4.512 79.928 4.416 80.312 4.416 81.08C4.416 82.904 6.432 83 8.064 83H29.856C42.624 83 54.336 77.24 54.336 63.32ZM41.856 32.12C41.856 38.072 37.824 45.176 25.92 45.176H17.472V23.192C17.472 18.296 20.544 18.872 26.592 18.872C33.984 18.872 41.856 19.448 41.856 32.12ZM44.544 62.84C44.544 76.088 34.656 78.296 29.376 78.296H23.52C18.816 78.296 17.472 77.912 17.472 74.744V49.304H26.976C33.984 49.304 44.544 50.744 44.544 62.84ZM106.797 68.6C106.797 67.928 106.605 66.68 105.453 66.68C104.493 66.68 104.301 66.872 103.245 68.6C101.229 72.152 99.981 75.224 94.605 77.336C92.589 78.104 89.709 78.2 86.349 78.2H77.517C75.981 78.2 75.693 77.912 75.693 74.84V49.4L86.349 49.88C89.805 50.072 93.357 50.264 94.317 50.264C95.661 50.264 97.965 50.264 97.965 47.48C97.965 45.848 97.869 44.12 95.181 44.12C94.221 44.12 90.861 44.408 89.709 44.504L75.693 45.464V21.944C75.693 19.256 76.557 18.872 78.669 18.872H88.077C91.917 18.872 95.661 19.832 97.293 23.192C98.541 25.784 98.733 30.68 101.037 30.68C103.245 30.68 103.245 22.52 103.245 19.832C103.245 16.76 103.149 14.264 100.269 14.264C98.637 14.264 96.141 14.552 94.893 14.552H66.189C64.557 14.552 62.541 14.648 62.541 16.472C62.541 17.144 62.637 17.72 63.693 17.72C65.037 17.72 66.765 18.296 66.765 22.616V74.84C66.765 79.16 65.037 79.928 63.693 79.928C62.829 79.928 62.445 80.312 62.445 81.08C62.445 82.904 64.653 83 66.093 83H98.253C103.533 83 104.013 81.56 105.453 76.28C106.605 72.248 106.797 70.04 106.797 68.6ZM163.088 61.496C163.088 52.376 157.424 42.392 138.512 42.392C135.056 42.392 129.104 42.968 126.224 44.216V21.944C126.224 19.256 127.088 18.872 129.104 18.872H141.104C145.04 18.872 148.688 19.832 150.32 23.192C151.568 25.784 152.048 30.68 154.352 30.68C156.56 30.68 156.56 22.52 156.56 19.832C156.56 16.76 156.56 14.264 153.776 14.264C152.048 14.264 149.648 14.552 148.304 14.552H116.72C115.28 14.552 113.072 14.744 113.072 16.568C113.072 17.24 113.168 17.816 114.224 17.816C116.72 17.816 117.296 18.392 117.296 22.616V74.936C117.296 79.256 115.664 79.928 114.32 79.928C113.264 79.928 113.168 80.312 113.168 81.08C113.168 82.904 115.088 83 116.816 83H136.4C153.296 83 163.088 74.936 163.088 61.496ZM153.296 61.88C153.296 77.24 141.104 78.296 137.168 78.296H132.272C127.568 78.296 126.224 77.912 126.224 74.744V50.84C126.224 47.576 130.544 46.904 137.168 46.904C147.536 46.904 153.296 51.704 153.296 61.88ZM197.622 61.208V55.928H172.182V61.208H197.622ZM265.92 80.6C265.92 78.392 264.48 78.488 263.04 78.488C258.72 78.488 258.336 76.952 258.336 74.936V22.808C258.336 19.448 259.968 18.008 261.12 18.008C262.368 18.008 262.56 17.336 262.56 16.664C262.56 14.84 260.64 14.552 258.72 14.552H221.568C219.744 14.552 216.192 14.744 216.192 16.568C216.192 17.24 216.48 17.912 217.632 17.912C222.048 17.912 224.256 19.64 224.256 30.584C224.256 44.312 221.952 60.632 218.304 69.656C216.384 74.36 213.216 78.392 210.144 78.392C208.8 78.392 206.112 78.008 206.112 80.6C206.112 86.456 206.4 96.344 208.896 96.344C211.104 96.344 211.68 89.624 212.64 87.128C214.272 82.808 218.304 83 220.416 83H249.12C253.92 83 257.856 83.096 259.392 86.744C260.448 89.24 260.64 95.864 262.656 95.864C265.92 95.864 265.92 83 265.92 80.6ZM249.408 78.2H219.552C222.144 74.36 224.352 67.832 226.176 59C229.824 41.72 229.344 26.936 229.536 24.44C229.728 20.408 230.112 19.256 233.088 19.256H246.528C249.12 19.256 249.408 19.544 249.408 22.232V78.2ZM330.505 81.08C330.505 80.312 330.313 79.928 329.257 79.928C327.817 79.928 326.281 79.256 326.281 74.936V22.616C326.281 18.296 327.817 17.72 329.257 17.72C330.313 17.72 330.505 17.144 330.505 16.472C330.505 14.648 328.297 14.552 326.857 14.552H317.737C316.009 14.552 313.993 14.648 313.993 16.472C313.993 17.144 314.089 17.72 315.241 17.72C316.201 17.72 317.353 18.68 317.353 20.696V21.272L286.537 68.408V22.616C286.537 18.296 288.169 17.72 289.417 17.72C290.665 17.72 290.857 17.144 290.857 16.472C290.857 14.648 288.649 14.552 287.113 14.552H277.129C275.401 14.552 273.385 14.648 273.385 16.472C273.385 17.144 273.481 17.72 274.633 17.72C275.881 17.72 277.609 18.296 277.609 22.616V74.936C277.609 79.256 275.881 79.928 274.633 79.928C273.481 79.928 273.385 80.312 273.385 81.08C273.385 82.904 275.401 83 277.129 83H287.113C288.649 83 290.857 82.904 290.857 81.08C290.857 80.312 290.665 79.928 289.417 79.928C288.169 79.928 286.537 79.256 286.537 76.76V76.088L317.353 28.952V74.936C317.353 79.256 315.625 79.928 314.281 79.928C313.129 79.928 313.033 80.312 313.033 81.08C313.033 82.904 315.049 83 316.777 83H326.857C328.297 83 330.505 82.904 330.505 81.08ZM384.335 63.224C384.335 56.216 379.343 48.824 367.631 47.096V46.616C375.887 44.12 382.223 37.304 382.223 28.856C382.223 17.24 374.543 13.208 362.831 13.208C356.303 13.208 351.311 14.552 345.839 16.568C343.535 17.432 340.943 18.68 340.943 24.344C340.943 27.992 341.039 32.984 343.343 32.984C346.031 32.984 346.511 28.856 347.663 25.88C348.815 23.096 352.559 17.432 360.335 17.432C368.783 17.432 372.335 21.464 372.335 30.584C372.335 39.32 367.439 45.272 358.703 45.272C356.495 45.272 354.767 45.176 352.271 45.176C350.447 45.176 348.815 45.272 348.815 47.672C348.815 50.264 349.391 51.032 350.447 51.032C353.327 51.032 354.383 49.88 359.759 49.88C368.399 49.88 374.063 55.064 374.063 64.088C374.063 76.376 366.671 80.12 360.143 80.12C353.711 80.12 349.775 77.432 347.663 74.264C344.015 68.792 344.783 63.896 342.479 63.896C339.791 63.896 338.351 66.968 338.351 72.536C338.351 79.832 348.239 84.536 360.143 84.536C374.063 84.536 384.335 76.376 384.335 63.224ZM448.136 80.792C448.136 80.12 447.944 79.736 446.696 79.736C445.064 79.736 444.2 78.68 442.856 74.36L427.304 22.904C425.384 16.664 425.288 14.552 421.64 14.552H414.344C412.424 14.552 410.408 14.84 410.408 16.664C410.408 17.336 410.984 17.912 411.944 18.296C413.576 18.776 413.768 20.312 412.904 22.904L394.952 74.36C393.416 78.68 391.592 79.928 390.248 79.928C389.288 79.928 388.904 80.312 388.904 81.08C388.904 82.904 391.016 83 392.552 83H400.616C402.632 83 403.88 82.52 403.88 81.08C403.88 80.12 403.208 79.928 402.152 79.928C400.616 79.928 400.04 78.968 400.04 77.144C400.04 76.184 400.328 75.128 400.616 74.168L405.992 57.656H428.264L432.968 74.168C433.16 74.84 433.544 75.8 433.544 77.144C433.544 78.968 431.912 79.736 430.088 79.736C428.84 79.736 428.552 80.12 428.552 80.792C428.552 82.616 430.472 83 432.584 83H444.776C446.696 83 448.136 82.616 448.136 80.792ZM427.016 53.24H407.432L418.088 21.08L427.016 53.24ZM497.438 4.184C497.438 1.88 495.998 0.439999 492.926 0.439999C489.758 0.439999 488.702 3.224 488.702 5.048C488.702 7.352 487.646 9.368 483.134 9.368C478.526 9.368 477.661 7.352 477.661 5.048C477.661 3.224 476.606 0.439999 473.438 0.439999C470.366 0.439999 468.926 1.88 468.926 4.184C468.926 10.808 477.566 12.728 483.134 12.728C488.798 12.728 497.438 10.808 497.438 4.184ZM510.974 81.08C510.974 80.312 510.782 79.928 509.726 79.928C508.286 79.928 506.75 79.256 506.75 74.936V22.616C506.75 18.296 508.286 17.72 509.726 17.72C510.782 17.72 510.974 17.144 510.974 16.472C510.974 14.648 508.766 14.552 507.326 14.552H498.206C496.478 14.552 494.462 14.648 494.462 16.472C494.462 17.144 494.558 17.72 495.71 17.72C496.67 17.72 497.822 18.68 497.822 20.696V21.272L467.006 68.408V22.616C467.006 18.296 468.638 17.72 469.886 17.72C471.134 17.72 471.326 17.144 471.326 16.472C471.326 14.648 469.118 14.552 467.582 14.552H457.598C455.87 14.552 453.854 14.648 453.854 16.472C453.854 17.144 453.95 17.72 455.102 17.72C456.35 17.72 458.078 18.296 458.078 22.616V74.936C458.078 79.256 456.35 79.928 455.102 79.928C453.95 79.928 453.854 80.312 453.854 81.08C453.854 82.904 455.87 83 457.598 83H467.582C469.118 83 471.326 82.904 471.326 81.08C471.326 80.312 471.134 79.928 469.886 79.928C468.638 79.928 467.006 79.256 467.006 76.76V76.088L497.822 28.952V74.936C497.822 79.256 496.094 79.928 494.75 79.928C493.598 79.928 493.502 80.312 493.502 81.08C493.502 82.904 495.518 83 497.246 83H507.326C508.766 83 510.974 82.904 510.974 81.08ZM575.076 81.08C575.076 80.312 574.788 79.928 573.828 79.928C572.484 79.928 570.852 79.256 570.852 74.936V22.616C570.852 18.296 572.484 17.72 573.828 17.72C574.98 17.72 575.076 17.144 575.076 16.472C575.076 14.648 572.964 14.552 571.428 14.552H561.348C559.62 14.552 557.7 14.648 557.7 16.472C557.7 17.144 557.7 17.72 558.852 17.72C560.196 17.72 561.924 18.296 561.924 22.616V44.12H532.068V22.616C532.068 18.296 533.7 17.72 534.948 17.72C536.196 17.72 536.388 17.144 536.388 16.472C536.388 14.648 534.18 14.552 532.644 14.552H522.66C520.932 14.552 519.012 14.648 519.012 16.472C519.012 17.144 519.108 17.72 520.164 17.72C521.508 17.72 523.14 18.296 523.14 22.616V74.936C523.14 79.256 521.604 79.928 520.26 79.928C519.3 79.928 519.012 80.312 519.012 81.08C519.012 82.904 521.124 83 522.66 83H532.644C534.18 83 536.388 82.904 536.388 81.08C536.388 80.312 536.004 79.928 534.948 79.928C533.7 79.928 532.068 79.256 532.068 74.936V48.44H561.924V74.936C561.924 79.256 560.292 79.928 558.948 79.928C557.988 79.928 557.7 80.312 557.7 81.08C557.7 82.904 559.812 83 561.348 83H571.428C572.964 83 575.076 82.904 575.076 81.08Z" fill="#BB6BD9"/>
<path d="M55.68 183.136C60 180.832 62.688 175.744 62.688 169.6C62.688 159.808 55.2 151.456 40.128 151.456H7.968V220H40.992C57.216 220 64.608 211.552 64.608 200.128C64.608 193.312 60.576 187.84 55.68 185.632V183.136ZM22.272 178.624V163.36H38.304C44.736 163.36 48 165.856 48 170.944C48 176.032 44.832 178.624 38.4 178.624H22.272ZM22.272 207.808V190.624H39.072C46.272 190.624 49.92 193.504 49.92 199.36C49.92 205.12 46.08 207.808 38.88 207.808H22.272ZM91.7408 207.232V191.104H120.061V178.624H91.7408V164.224H128.125V151.456H77.4368V220H129.181V207.232H91.7408ZM117.661 144.928V133.984H106.429V144.928H117.661ZM98.8448 144.928V133.984H87.5168V144.928H98.8448ZM141.374 151.456V220H155.678V195.424H172.67C188.414 195.424 197.438 187.168 197.438 173.248C197.438 159.52 188.414 151.456 172.67 151.456H141.374ZM155.678 182.848V164.032H170.654C179.486 164.032 182.75 167.296 182.75 173.44C182.75 179.488 179.486 182.848 170.654 182.848H155.678ZM253.295 198.112C251.855 204.64 246.959 208.48 239.567 208.48C227.279 208.48 221.423 198.4 221.423 185.728C221.423 173.056 227.279 162.976 239.567 162.976C246.575 162.976 250.895 165.76 252.527 171.424H267.503C265.199 158.848 254.735 150.208 239.567 150.208C218.735 150.208 206.735 164.704 206.735 185.728C206.735 206.752 218.639 221.248 239.567 221.248C255.599 221.248 266.159 211.744 268.175 198.112H253.295ZM331.277 151.456H274.349V164.032H295.661V220H309.965V164.032H331.277V151.456ZM340.781 220H355.085V191.2H371.405L384.749 220H399.533L383.309 184.768L398.669 151.456H383.885L371.309 178.24H355.085V151.456H340.781V220ZM454.619 220H469.115L447.227 151.456H425.051L403.259 220H417.371L422.939 201.472H449.051L454.619 220ZM433.787 165.184H438.011L445.211 188.992H426.587L433.787 165.184Z" fill="#56CCF2"/>
</svg>
