<svg width="64" height="64" viewBox="0 0 64 64" fill="none" xmlns="http://www.w3.org/2000/svg">
<g clip-path="url(#clip0)">
<path d="M63.9059 0.020729L57.5303 4.79301L51.1186 19.7421H45.9626L43.9381 15.3549H45.2608C47.6803 15.3549 49.648 13.4082 49.648 10.9887V6.58055H51.8416V0H45.2608V6.58055H47.4544V10.9887C47.4544 12.1974 46.4707 13.1613 45.2608 13.1613H42.9258L40.1223 7.09624L43.4806 5.42249L32.4843 0.712849L29.8992 9.76015C29.829 4.37728 25.4342 0.0198077 20.0347 0.0198077C14.5915 0.0198077 10.1638 4.44753 10.1638 9.89075C10.1638 13.18 11.8297 16.2652 14.551 18.0891V19.7419H11.8947L11.7235 20.6413C11.1906 23.4063 11.141 26.248 11.5766 29.0821L4.09431 42.419L12.3574 44.3065V58.1291H23.3251V68H49.6478V52.7165C57.3251 47.2852 61.71 38.5528 61.7035 29.2367L61.7058 25.2358C61.7058 23.7276 61.5665 22.178 61.2857 20.6512L61.1234 19.7419H58.9703L63.9059 7.91757V0.020729ZM47.4542 4.40791V2.21432H49.6478V4.40791H47.4542ZM43.5465 19.7419H39.3864L37.3925 15.3547H41.522L43.5465 19.7419ZM33.908 3.71257L38.2677 5.58049L37.2389 6.08489L40.5095 13.1613H36.3955L33.7226 7.29478L32.7409 7.79043L33.908 3.71257ZM36.9768 19.7421H32.0995V17.5695C32.0995 16.3598 33.0832 15.3552 34.2931 15.3552H34.9829V15.3549L36.9768 19.7421ZM32.6698 10.2844L34.0001 13.2118C31.7188 13.3654 29.9059 15.2497 29.9059 17.5692V19.7419H25.5187V18.0891C27.7134 16.6182 29.2027 14.3228 29.705 11.7663L32.6698 10.2844ZM12.3576 9.8919C12.3576 5.65949 15.8025 2.21455 20.0349 2.21455C24.2674 2.21455 27.7123 5.65949 27.7123 9.8919C27.7123 12.6164 26.2405 15.1619 23.8726 16.5339L23.3253 16.8497V19.7419H21.1317V12.9791C22.4052 12.5252 23.3253 11.3185 23.3253 9.89052C23.3253 8.07649 21.849 6.60013 20.0349 6.60013C18.2209 6.60013 16.7446 8.07672 16.7446 9.89075C16.7446 11.3187 17.6647 12.5252 18.9381 12.9794V19.7421H16.7446V16.8497L16.1973 16.5328C13.8294 15.1608 12.3576 12.6162 12.3576 9.8919ZM20.0349 10.9887C19.4294 10.9887 18.9381 10.496 18.9381 9.8919C18.9381 9.28638 19.4294 8.7951 20.0349 8.7951C20.6405 8.7951 21.1317 9.28638 21.1317 9.8919C21.1317 10.4974 20.6405 10.9887 20.0349 10.9887ZM59.2773 21.9357C59.4365 23.0323 59.5166 24.1445 59.5166 25.2259L59.5189 29.2346C59.5256 38.021 55.19 46.2488 47.9369 51.2424L47.4544 51.5715V65.8066H25.5189V55.9357H14.551V42.5572L7.44275 40.935L13.8632 29.488L13.8008 29.0964C13.3929 26.6967 13.3699 24.1291 13.7241 21.9357H14.551H25.5187H59.2773ZM56.5936 19.7419H53.5041L58.9715 6.99513L61.403 8.20593L56.5936 19.7419ZM61.7123 5.92252L60.4992 5.31608L61.7123 4.40791V5.92252Z" fill="#2D9CDB"/>
<path d="M22.2285 28.5162C20.4145 28.5162 18.9381 27.4194 18.9381 25.2258H16.7445C16.7445 28.5162 19.2046 30.7098 22.2285 30.7098C25.2524 30.7098 27.7125 28.5162 27.7125 25.2258H25.5189C25.5186 27.4194 24.0425 28.5162 22.2285 28.5162Z" fill="#2D9CDB"/>
</g>
<defs>
<clipPath id="clip0">
<rect width="64" height="64" fill="white"/>
</clipPath>
</defs>
</svg>
