<svg width="64" height="64" viewBox="0 0 64 64" fill="none" xmlns="http://www.w3.org/2000/svg">
<g clip-path="url(#clip0)">
<path d="M1.56907 39.8837C1.92006 40.1269 2.29037 40.3409 2.67628 40.5237C3.13814 40.7595 3.91041 41.1541 3.96481 41.4315C4.0327 41.7956 3.9892 42.1718 3.84001 42.5109C3.68108 42.8523 3.51361 43.1456 3.37068 43.3995C2.97921 44.0885 2.32641 45.2437 3.31201 46.0501C3.54241 46.2635 3.94028 46.5717 4.30401 46.8501C4.03672 47.3168 3.91559 47.853 3.95628 48.3893C4.01231 48.8091 4.23879 49.1872 4.58241 49.4347C4.82241 49.6053 5.07948 49.7547 5.32908 49.8987C5.95628 50.256 6.20161 50.4224 6.28908 50.752C6.34645 51.1859 6.30636 51.6272 6.17174 52.0437C6.10881 52.3211 6.04801 52.5973 6.00854 52.8811C5.90282 53.8539 6.02629 54.838 6.36908 55.7547C6.8478 57.4532 8.38382 58.6367 10.1483 58.6667C10.4411 58.6656 10.7331 58.6348 11.0197 58.5749C14.067 57.8527 17.0698 56.9542 20.0128 55.8837C22.4149 57.2939 23.9339 61.5819 24.3296 63.1915C24.4482 63.6669 24.8754 64.0003 25.3654 64L52.1387 63.9253C52.478 63.9247 52.7967 63.7626 52.9972 63.4889C53.1977 63.2151 53.256 62.8623 53.1542 62.5387C52.8904 61.816 52.5267 61.1338 52.0736 60.512C51.8174 60.1441 51.5865 59.7592 51.3824 59.36C50.9001 58.3817 50.4974 57.3662 50.1782 56.3232C49.5697 54.2617 49.1474 52.1498 48.9163 50.0128C48.5419 46.8216 49.0257 43.5882 50.3179 40.6464C51.1064 39.0149 52.0784 37.4785 53.215 36.0672C53.855 35.2032 54.5195 34.3083 55.1158 33.3685C56.141 31.7759 56.8843 30.0187 57.3131 28.1739C57.4358 27.6044 57.0789 27.0418 56.5115 26.9101C55.944 26.7784 55.3758 27.1264 55.2352 27.6917C54.8602 29.3018 54.2107 30.8354 53.3152 32.2251C52.7616 33.1008 52.1216 33.9627 51.5019 34.7968C50.2676 36.3369 49.2143 38.0137 48.3627 39.7941C46.9182 43.0842 46.3783 46.7003 46.799 50.2688C47.0449 52.5351 47.4951 54.7746 48.144 56.96C48.4945 58.1075 48.9371 59.2247 49.4678 60.3008C49.711 60.7816 49.9872 61.2449 50.2944 61.6875L50.3659 61.7941L26.1718 61.8667C25.4628 59.3365 24.1772 57.0049 22.416 55.0549L23.376 54.7211C24.0928 54.4704 24.6336 54.2816 24.9131 54.1877C29.4806 52.7317 31.7654 50.6517 31.7024 48.0011C31.6995 47.7179 31.582 47.4481 31.3769 47.2529C31.1717 47.0578 30.8963 46.9541 30.6134 46.9653C30.0246 46.9793 29.5586 47.4678 29.5723 48.0565C29.5979 49.1477 28.6987 50.7456 24.2646 52.1579C23.9744 52.2507 23.4112 52.4459 22.6742 52.7051C21.8816 52.9813 20.8768 53.3333 19.7675 53.7099H19.76C16.7602 54.8098 13.6995 55.7358 10.5931 56.4832C9.59955 56.67 8.63377 56.046 8.39574 55.0635C8.16634 54.4614 8.07626 53.8152 8.13228 53.1733C8.16321 52.96 8.21334 52.736 8.26241 52.5184C8.48942 51.7738 8.52609 50.9842 8.36908 50.2219C8.0593 49.2451 7.34089 48.4508 6.40001 48.0448L6.17068 47.9136C6.28565 47.68 6.42358 47.4585 6.58241 47.2523C6.76113 47.0252 6.84012 46.7355 6.80132 46.4492C6.76251 46.1629 6.60924 45.9046 6.37654 45.7333C6.12161 45.5456 5.52321 45.0933 5.07521 44.7371C5.12641 44.6443 5.18188 44.5419 5.23628 44.4501C5.40374 44.1557 5.59574 43.8101 5.78134 43.4187C6.11938 42.6715 6.21848 41.8381 6.06508 41.0325C5.81014 39.7312 4.56321 39.0933 3.65334 38.6283C3.3468 38.4824 3.05283 38.3115 2.77441 38.1173C2.54582 37.9642 2.33161 37.7907 2.13441 37.5989C2.13441 37.4368 2.30828 37.0453 3.12001 36.0565C5.02873 33.5972 6.66497 30.9381 8.00001 28.1259C8.25063 27.685 8.39182 27.1904 8.41174 26.6837C8.30003 25.6105 7.72941 24.638 6.84694 24.0171C6.41494 23.6203 6.00641 23.2469 5.96054 22.9323C5.97032 22.6709 6.02893 22.4137 6.13334 22.1739C6.30721 21.7173 6.50881 21.2693 6.70934 20.8203C7.15914 19.8938 7.51643 18.9252 7.77601 17.9285C8.02044 16.7331 8.3411 15.5545 8.73601 14.4C9.57676 12.0791 10.8786 9.95252 12.5632 8.14825C14.6027 5.98825 17.8133 4.46078 22.1227 3.60532C25.419 2.88163 28.7637 2.39963 32.1302 2.16318C33.2629 2.10481 34.3983 2.12905 35.5275 2.23572C35.9078 2.27116 36.2781 2.10101 36.499 1.78936C36.7199 1.47771 36.7577 1.07191 36.5982 0.724826C36.4387 0.377738 36.1062 0.142091 35.7259 0.10665C34.4933 -0.00628716 33.2542 -0.0308833 32.0182 0.03305C28.5477 0.273855 25.0995 0.768692 21.7013 1.51358C16.8917 2.47358 13.3963 4.15998 11.0112 6.68158C9.12782 8.69494 7.67203 11.0691 6.73174 13.6608C6.29947 14.922 5.94853 16.2096 5.68108 17.5157C5.4531 18.3533 5.14668 19.1676 4.76588 19.9477C4.55254 20.4331 4.33281 20.9184 4.14081 21.4229C3.89805 21.9869 3.79839 22.6021 3.85068 23.2139C4.07133 24.166 4.62474 25.008 5.41121 25.5883C5.93388 26.0672 6.27841 26.4043 6.28268 26.6987C6.24385 26.8606 6.18283 27.0164 6.10134 27.1616C4.82427 29.8513 3.2592 32.3945 1.43361 34.7467C0.661341 35.6885 -0.149326 36.7861 0.0202744 37.8848C0.247416 38.7319 0.805508 39.4522 1.56907 39.8837Z" fill="#2D9CDB"/>
<path d="M12.7339 15.8815C13.3762 14.1007 14.3718 12.468 15.6608 11.0815C17.0827 9.57646 19.5413 8.46819 22.9696 7.78659C23.5475 7.67201 23.9231 7.11063 23.8085 6.53272C23.6939 5.95481 23.1326 5.57921 22.5547 5.69379C18.6837 6.46392 15.8432 7.78232 14.1109 9.61272C12.6225 11.2103 11.473 13.0927 10.7317 15.1466C10.3726 16.2122 10.0802 17.2991 9.85599 18.401L11.9392 18.8629C12.1436 17.8539 12.409 16.8583 12.7339 15.8815Z" fill="#2D9CDB"/>
<path d="M35.0496 5.97334L34.4096 9.16481C33.7927 9.36741 33.1921 9.61703 32.6134 9.91148L29.9051 8.09814C29.0589 7.54397 27.9398 7.66024 27.2256 8.37654L25.4549 10.1461C24.7246 10.8632 24.6064 11.998 25.1733 12.8501L26.9781 15.5456C26.6837 16.1244 26.4341 16.7249 26.2315 17.3419L23.0443 17.9819C22.0484 18.183 21.3325 19.0587 21.3333 20.0747V22.592C21.3326 23.6063 22.0462 24.4809 23.04 24.6837L26.2315 25.3237C26.4341 25.9407 26.6837 26.5412 26.9781 27.12L25.1648 29.8283C24.6106 30.6745 24.7269 31.7935 25.4432 32.5077L27.2139 34.2784C27.9322 35.0055 29.0645 35.123 29.9168 34.5589L32.6123 32.7541C33.1911 33.0486 33.7916 33.2982 34.4086 33.5008L35.0486 36.688C35.2493 37.6843 36.125 38.4007 37.1414 38.4H39.6587C40.673 38.4007 41.5476 37.6872 41.7504 36.6933L42.3904 33.5019C43.0074 33.2993 43.6079 33.0497 44.1867 32.7552L46.895 34.5685C47.7412 35.1227 48.8602 35.0064 49.5744 34.2901L51.344 32.5205C52.0744 31.8035 52.1926 30.6687 51.6256 29.8165L49.8208 27.1211C50.1153 26.5423 50.3649 25.9418 50.5675 25.3248L53.7547 24.6848C54.3878 24.5568 54.9283 24.1478 55.2235 23.5733L56.831 24.6507C57.1411 24.8461 57.5001 24.95 57.8667 24.9504C58.3781 24.9505 58.8683 24.7467 59.2288 24.384L60.6475 22.9653C61.2927 22.3169 61.3963 21.3055 60.896 20.5397L59.52 18.4811C59.7196 18.0799 59.8921 17.6658 60.0363 17.2416L62.4502 16.7605C63.3533 16.5831 64.0035 15.7897 64 14.8693V12.864C64.0033 11.947 63.3577 11.1558 62.4587 10.9749L60.0342 10.4917C59.8911 10.0674 59.7193 9.65329 59.52 9.25228L60.9174 7.16908C61.4016 6.4061 61.2907 5.40917 60.6507 4.77121L59.232 3.35254C58.5838 2.707 57.5721 2.60334 56.8064 3.10401L54.7478 4.48001C54.3466 4.28042 53.9325 4.10795 53.5083 3.96374L53.0262 1.54988C52.8488 0.647134 52.056 -0.00293281 51.136 1.21089e-05H49.1307C48.2137 -0.0032237 47.4225 0.642389 47.2416 1.54134L46.7584 3.96588C46.334 4.10999 45.9199 4.28283 45.519 4.48321L43.4358 3.08588C42.6726 2.60251 41.6762 2.71332 41.0379 3.35254L40.0779 4.31254C39.94 4.28378 39.7996 4.26842 39.6587 4.26668H37.1414C36.127 4.26596 35.2525 4.97953 35.0496 5.97334ZM51.3568 10.1547L50.8587 9.65654C52.7076 9.90404 54.1781 11.3297 54.4828 13.17C54.7875 15.0103 53.855 16.8338 52.1846 17.664L50.5654 17.344C50.3628 16.727 50.1131 16.1265 49.8187 15.5477L51.632 12.8395C52.1882 11.9935 52.0732 10.8732 51.3568 10.1579V10.1547ZM42.4288 4.97494L44.8672 6.61334C45.2092 6.84264 45.6525 6.85468 46.0064 6.64428C46.617 6.28492 47.2737 6.01039 47.9584 5.82828C48.3497 5.72262 48.6472 5.40438 48.7264 5.00694L49.2992 2.13334H50.9675L51.5403 5.01334C51.6195 5.41078 51.9171 5.72902 52.3083 5.83468C52.993 6.01679 53.6497 6.29132 54.2603 6.65068C54.6154 6.85917 55.0588 6.84464 55.3995 6.61334L57.8379 4.97708L59.0219 6.16108L57.3867 8.60054C57.1574 8.94248 57.1454 9.38586 57.3558 9.73974C57.7151 10.3503 57.9896 11.007 58.1718 11.6917C58.2774 12.083 58.5957 12.3805 58.9931 12.4597L61.8731 13.0325V14.7008L58.9984 15.2736C58.601 15.3528 58.2828 15.6504 58.1771 16.0416C57.995 16.7263 57.7205 17.383 57.3611 17.9936C57.1507 18.3475 57.1627 18.7909 57.392 19.1328L59.0283 21.5712L57.8443 22.7552L55.4667 21.1648V20.0747C55.4668 19.4501 55.1941 18.8567 54.72 18.4501C56.5979 16.6411 57.1871 13.8719 56.2084 11.455C55.2296 9.03814 52.8796 7.45926 50.272 7.46668C49.6271 7.47073 48.9868 7.57583 48.3744 7.77814C47.8533 7.70221 47.3223 7.81903 46.8811 8.10668L44.1878 9.91148C43.609 9.61703 43.0085 9.36741 42.3915 9.16481L41.7515 5.97761C41.7326 5.89215 41.708 5.80805 41.6779 5.72588L42.4288 4.97494ZM36.3734 10.2155L37.1414 6.40001H39.6587L40.4256 10.2187C40.5054 10.615 40.8023 10.9322 41.1926 11.0379C42.0739 11.2755 42.9205 11.6269 43.711 12.0832C44.0632 12.2875 44.5011 12.2735 44.8395 12.0469L48.0672 9.88801L49.855 11.6661L47.6896 14.8971C47.4631 15.2355 47.449 15.6733 47.6534 16.0256C48.1097 16.8161 48.4611 17.6627 48.6987 18.544C48.8044 18.9342 49.1216 19.2312 49.5179 19.3109L53.3334 20.0736V22.592L49.5147 23.3589C49.1184 23.4387 48.8012 23.7356 48.6955 24.1259C48.4579 25.0072 48.1065 25.8538 47.6502 26.6443C47.4458 26.9965 47.4599 27.4344 47.6864 27.7728L49.8454 31.0005L48.0672 32.7883L44.8363 30.6229C44.4979 30.3964 44.06 30.3823 43.7078 30.5867C42.9173 31.043 42.0707 31.3944 41.1894 31.632C40.7991 31.7377 40.5022 32.0549 40.4224 32.4512L39.6587 36.2667H37.1414L36.3744 32.448C36.2947 32.0517 35.9977 31.7345 35.6075 31.6288C34.7262 31.3912 33.8796 31.0398 33.0891 30.5835C32.7368 30.3791 32.299 30.3932 31.9606 30.6197L28.7328 32.7787L26.9451 31.0005L29.1104 27.7696C29.3369 27.4312 29.351 26.9933 29.1467 26.6411C28.6903 25.8506 28.3389 25.004 28.1013 24.1227C27.9957 23.7324 27.6785 23.4355 27.2821 23.3557L23.4667 22.592V20.0747L27.2853 19.3077C27.6817 19.228 27.9989 18.931 28.1045 18.5408C28.3421 17.6595 28.6935 16.8129 29.1499 16.0224C29.3542 15.6701 29.3401 15.2323 29.1136 14.8939L26.9547 11.6661L28.7328 9.87841L31.9638 12.0437C32.3022 12.2703 32.74 12.2843 33.0923 12.08C33.8828 11.6237 34.7294 11.2723 35.6107 11.0347C35.9993 10.9276 36.2943 10.6107 36.3734 10.2155Z" fill="#2D9CDB"/>
<path d="M38.4 28.8C42.5237 28.8 45.8667 25.4571 45.8667 21.3334C45.8667 17.2096 42.5237 13.8667 38.4 13.8667C34.2763 13.8667 30.9333 17.2096 30.9333 21.3334C30.9381 25.4551 34.2782 28.7953 38.4 28.8ZM38.4 16C41.3455 16 43.7333 18.3878 43.7333 21.3334C43.7333 24.2789 41.3455 26.6667 38.4 26.6667C35.4545 26.6667 33.0667 24.2789 33.0667 21.3334C33.0702 18.3893 35.456 16.0036 38.4 16Z" fill="#2D9CDB"/>
<path d="M38.4 22.3999C38.9891 22.3999 39.4667 21.9224 39.4667 21.3333C39.4667 20.7442 38.9891 20.2666 38.4 20.2666C37.8109 20.2666 37.3333 20.7442 37.3333 21.3333C37.3333 21.9224 37.8109 22.3999 38.4 22.3999Z" fill="#2D9CDB"/>
<path d="M9.59999 23.4667C10.1891 23.4667 10.6667 22.9891 10.6667 22.4C10.6667 21.8109 10.1891 21.3334 9.59999 21.3334C9.01089 21.3334 8.53333 21.8109 8.53333 22.4C8.53333 22.9891 9.01089 23.4667 9.59999 23.4667Z" fill="#2D9CDB"/>
</g>
<defs>
<clipPath id="clip0">
<rect width="64" height="64" fill="white"/>
</clipPath>
</defs>
</svg>
