<svg width="64" height="64" viewBox="0 0 64 64" fill="none" xmlns="http://www.w3.org/2000/svg">
<g clip-path="url(#clip0)">
<path d="M51.4755 26.6666H54.6755C55.2646 26.6666 55.7422 26.189 55.7422 25.5999V22.3999C55.7422 21.8109 55.2646 21.3333 54.6755 21.3333C54.0865 21.3333 53.6089 21.8109 53.6089 22.3999V24.5333H51.4755C50.8865 24.5333 50.4089 25.0109 50.4089 25.5999C50.4089 26.189 50.8865 26.6666 51.4755 26.6666Z" fill="#2D9CDB"/>
<path d="M26.3812 22.4C28.7375 22.4 30.6479 20.4896 30.6479 18.1334C30.6479 15.7771 28.7375 13.8667 26.3812 13.8667C24.0245 13.8667 22.1146 15.7771 22.1146 18.1334C22.1146 20.4896 24.0245 22.4 26.3812 22.4ZM26.3812 16C27.5594 16 28.5146 16.9552 28.5146 18.1334C28.5146 19.3115 27.5594 20.2667 26.3812 20.2667C25.2026 20.2667 24.2479 19.3115 24.2479 18.1334C24.2479 16.9552 25.2026 16 26.3812 16Z" fill="#2D9CDB"/>
<path d="M3.08083 22.0458C3.53239 22.2792 4.03396 22.4005 4.54229 22.4C5.9001 22.4 7.10791 21.538 7.5501 20.2536L15.9386 20.124L14.4751 21.3333C14.072 21.6646 13.9678 22.2385 14.2287 22.6901L16.222 26.1333L16.2657 30.9333H10.9423C10.8798 30.9396 10.8178 30.9521 10.7574 30.9708C10.2537 29.488 8.75114 28.5875 7.20583 28.8427C5.66104 29.0979 4.52771 30.4339 4.52771 32C4.52771 33.5661 5.66104 34.9021 7.20583 35.1573C8.75114 35.4125 10.2537 34.512 10.7574 33.0292C10.8178 33.0479 10.8798 33.0604 10.9423 33.0667H17.3423C17.6267 33.0667 17.8996 32.9531 18.0996 32.751C18.3001 32.549 18.4116 32.275 18.409 31.9906L18.36 26.5844L21.773 25.3047C22.0048 25.4547 22.2402 25.5917 22.4782 25.7161L23.198 30.0406C23.284 30.5547 23.7293 30.9318 24.2511 30.9313H24.809V36.2646H21.609C21.0199 36.2646 20.5423 36.7422 20.5423 37.3313V52.8917L11.2548 62.1792C10.9496 62.4844 10.8584 62.9432 11.0235 63.3417C11.1886 63.7401 11.5777 64 12.009 64H46.1423C46.5735 64 46.9626 63.7401 47.1272 63.3417C47.2923 62.9432 47.2011 62.4844 46.8964 62.1792L39.7423 55.025V49.362L42.1303 45.3844C46.1595 47.8156 48.5954 49.0667 49.3423 49.0667H55.7423C56.3313 49.0667 56.8089 48.5891 56.8089 48V42.0417L58.6287 40.2219C58.8282 40.0214 58.9412 39.75 58.9423 39.4667V36.2667H60.5006C61.2225 36.2667 61.8959 35.9016 62.2897 35.2958C62.6829 34.6906 62.7438 33.9271 62.4506 33.2672L59.1339 25.8005C60.3928 24.3016 61.0803 22.4063 61.0756 20.449C61.0996 13.3891 57.1074 6.93021 50.7824 3.79427L47.6886 2.24531C47.2194 2.01146 46.6496 2.15313 46.3449 2.58021L45.898 3.2H38.6756V1.06667C38.6756 0.477604 38.198 0 37.6089 0H26.9423C26.3532 0 25.8756 0.477604 25.8756 1.06667V5.33333H24.248C23.7261 5.33281 23.2803 5.71042 23.1949 6.225L22.4751 10.5484C22.2371 10.6729 22.0011 10.8094 21.7699 10.9599L17.6621 9.42083C17.1741 9.2375 16.6251 9.43438 16.3642 9.88594L15.2886 11.7495C15.261 11.7495 15.2386 11.7333 15.211 11.7333H8.80896V8.33698C10.2782 7.81771 11.1595 6.3151 10.8959 4.77917C10.6324 3.24271 9.30062 2.12031 7.74229 2.12031C6.18343 2.12031 4.85166 3.24271 4.58812 4.77917C4.32458 6.3151 5.20635 7.81771 6.67562 8.33698V12.8C6.67562 13.3891 7.15323 13.8667 7.74229 13.8667H14.1261C14.0282 14.2599 14.1636 14.674 14.4751 14.9333L17.8584 17.7193C17.8584 17.7974 17.8584 17.8771 17.8522 17.9563L7.54593 18.1151C7.06156 16.763 5.735 15.899 4.30219 16.0031C2.86937 16.1068 1.68135 17.1526 1.39698 18.5604C1.11208 19.9688 1.80062 21.3938 3.08083 22.0458V22.0458ZM7.74229 33.0667C7.15323 33.0667 6.67562 32.5891 6.67562 32C6.67562 31.4109 7.15323 30.9333 7.74229 30.9333C8.33135 30.9333 8.80896 31.4109 8.80896 32C8.80896 32.5891 8.33135 33.0667 7.74229 33.0667ZM7.74229 4.26667C8.33135 4.26667 8.80896 4.74427 8.80896 5.33333C8.80896 5.9224 8.33135 6.4 7.74229 6.4C7.15323 6.4 6.67562 5.9224 6.67562 5.33333C6.67562 4.74427 7.15323 4.26667 7.74229 4.26667ZM26.9423 30.9333H28.5147C29.0355 30.9333 29.4803 30.5568 29.5662 30.0427L30.2871 25.7182C30.5241 25.5948 30.76 25.4573 30.9912 25.3068L35.1011 26.8458C35.5892 27.0292 36.1381 26.8323 36.3991 26.3807L36.8506 25.6H41.8756C41.9543 25.5938 42.0319 25.5781 42.1069 25.5531L44.0089 28.0885V29.8667H39.7423V32H42.2032L39.3464 33.1422C38.9412 33.3042 38.6751 33.6969 38.6756 34.1333V36.2667H26.9423V30.9333ZM38.5324 13.5807L38.0824 12.8H40.8089V17.0667H35.7006L38.2871 14.9333C38.6876 14.6021 38.7907 14.0313 38.5324 13.5807ZM40.8089 19.2V23.4667H38.0824L38.5324 22.6859C38.7907 22.2354 38.6876 21.6646 38.2871 21.3333L35.7006 19.2H40.8089ZM33.6548 45.5542L37.6089 49.5083V50.1333H31.209V38.4H33.3423V44.8C33.3423 45.0828 33.4548 45.3542 33.6548 45.5542ZM26.8933 59.7333H26.9423V59.6781L30.9454 55.1031C31.1157 54.9083 31.209 54.6583 31.209 54.4V52.2667H33.3423V61.8667H25.022L26.8933 59.7333ZM14.584 61.8667L22.3631 54.0875C22.5631 53.8875 22.6756 53.6161 22.6756 53.3333V38.4H29.0756V53.999L26.9423 56.4375V51.2H24.809V58.8802L22.1912 61.8667H14.584ZM43.5673 61.8667H35.4756V52.2667H37.6089V55.4667C37.6089 55.7495 37.7214 56.0208 37.9214 56.2208L43.5673 61.8667ZM38.4621 47.3474L35.4756 44.3604V38.4H38.6756V42.6667C38.6756 43.0344 38.8652 43.376 39.1767 43.5714C39.5746 43.8208 39.9339 44.0406 40.3095 44.2719L38.4621 47.3474ZM47.547 4.56094L49.8277 5.7026C55.4282 8.47865 58.9631 14.1979 58.9423 20.449C58.947 22.099 58.2912 23.6823 57.1214 24.8458C56.8095 25.1578 56.7214 25.6297 56.9006 26.0328L60.5006 34.1333H57.8756C57.2866 34.1333 56.8089 34.6109 56.8089 35.2V38.4H56.6256C54.9756 38.4047 53.3928 37.749 52.2298 36.5792C51.811 36.175 51.1459 36.1807 50.7345 36.5922C50.323 37.0036 50.3173 37.6688 50.7214 38.0875C51.9855 39.3557 53.6272 40.1792 55.3996 40.4344L54.9881 40.8458C54.7881 41.0458 54.6756 41.3172 54.6756 41.6V46.9333L49.4433 46.9396C46.9793 45.8 44.5996 44.4844 42.3235 43.0036L42.3183 42.9984H42.3116C41.8095 42.6932 41.3058 42.3839 40.8089 42.0755V34.8552L45.4714 32.9911C45.8767 32.8292 46.1423 32.4365 46.1423 32V27.7333C46.1423 27.5026 46.0673 27.2781 45.9287 27.0932L42.9423 23.1115V11.0078L47.547 4.56094ZM28.009 2.13333H36.5423V4.26667C36.5423 4.85573 37.0199 5.33333 37.6089 5.33333H44.3746L41.0084 10.0469C40.8782 10.2276 40.8084 10.4443 40.8089 10.6667H36.8506L36.3991 9.88594C36.1381 9.43438 35.5892 9.2375 35.1011 9.42083L30.9954 10.9599C30.7642 10.8094 30.5282 10.6719 30.2912 10.5484L29.5662 6.22396C29.4803 5.7099 29.0355 5.33333 28.5147 5.33333H28.009V2.13333ZM16.5282 13.8667L17.7579 11.7333L21.5459 13.1531C21.886 13.2802 22.2673 13.226 22.5579 13.0089C22.9595 12.7063 23.3954 12.4521 23.8563 12.2516C24.1902 12.1083 24.4282 11.8047 24.4876 11.4464L25.1511 7.46667H27.611L28.2746 11.4474C28.334 11.8057 28.572 12.1094 28.9058 12.2526C29.3668 12.4536 29.8022 12.7078 30.2043 13.0099C30.4949 13.2271 30.8756 13.2813 31.2152 13.1542L35.0043 11.7333L36.2329 13.8667L33.1126 16.4344C32.8324 16.6651 32.6886 17.0234 32.7319 17.3844C32.7975 17.8823 32.7975 18.3865 32.7319 18.8844C32.6886 19.2453 32.8324 19.6036 33.1126 19.8349L36.2329 22.4L35.0043 24.5333L31.2152 23.1135C30.8756 22.9865 30.4949 23.0406 30.2043 23.2578C29.8022 23.5599 29.3668 23.8141 28.9058 24.0151C28.572 24.1583 28.334 24.462 28.2746 24.8203L27.611 28.8H25.1501L24.4886 24.8193C24.4293 24.4609 24.1912 24.1573 23.8574 24.0141C23.3965 23.8135 22.9605 23.5594 22.5595 23.2568C22.2683 23.0396 21.8871 22.9849 21.547 23.1125L17.7579 24.5333L16.5282 22.4L19.6485 19.8323C19.6673 19.8141 19.6855 19.7943 19.7027 19.774C19.7235 19.7542 19.7428 19.7339 19.7616 19.712C19.8418 19.6255 19.9063 19.526 19.9532 19.4177L19.96 19.4057C20.0043 19.2885 20.0277 19.1635 20.0282 19.038C20.0319 19.0229 20.035 19.0073 20.0366 18.9922C20.0366 18.9792 20.0303 18.9688 20.0293 18.9557C20.0282 18.9427 20.0293 18.9068 20.0293 18.8823C19.9636 18.3844 19.9636 17.8802 20.0293 17.3823C20.072 17.0214 19.9282 16.663 19.6475 16.4318L16.5282 13.8667ZM3.59385 18.7125C3.72094 18.4578 3.94594 18.2656 4.21677 18.1792C4.7626 18.0401 5.3225 18.3495 5.49541 18.8859C5.66833 19.4219 5.39385 20 4.86989 20.2057C4.30896 20.3859 3.70791 20.0776 3.52771 19.5167C3.44281 19.2505 3.46625 18.9615 3.59385 18.7125Z" fill="#2D9CDB"/>
<path d="M24.8089 42.6667H26.9422V44.8001H24.8089V42.6667Z" fill="#2D9CDB"/>
<path d="M24.8089 46.9333H26.9422V49.0667H24.8089V46.9333Z" fill="#2D9CDB"/>
<path d="M31.2089 29.8667H33.3422V32H31.2089V29.8667Z" fill="#2D9CDB"/>
<path d="M35.4755 29.8667H37.6089V32H35.4755V29.8667Z" fill="#2D9CDB"/>
<path d="M45.0755 10.6667H47.2089V14.9334H45.0755V10.6667Z" fill="#2D9CDB"/>
<path d="M45.0755 17.0667H47.2089V19.2H45.0755V17.0667Z" fill="#2D9CDB"/>
<path d="M45.0755 21.3333H47.2089V23.4666H45.0755V21.3333Z" fill="#2D9CDB"/>
</g>
<defs>
<clipPath id="clip0">
<rect width="64" height="64" fill="white"/>
</clipPath>
</defs>
</svg>
