<svg width="64" height="64" viewBox="0 0 64 64" fill="none" xmlns="http://www.w3.org/2000/svg">
<path d="M43.7333 0H20.2667C17.3227 0.00346667 14.9368 2.38933 14.9333 5.33333V58.6667C14.9368 61.6107 17.3227 63.9965 20.2667 64H43.7333C46.6773 63.9965 49.0632 61.6107 49.0667 58.6667V5.33333C49.0632 2.38933 46.6773 0.00346667 43.7333 0ZM27.7611 61.8667H20.2667C18.4993 61.8667 17.0667 60.434 17.0667 58.6667V55.4667H27.7611C26.3023 57.3507 26.3023 59.9827 27.7611 61.8667ZM32 61.8667C30.2327 61.8667 28.8 60.434 28.8 58.6667C28.8 56.8993 30.2327 55.4667 32 55.4667C33.7673 55.4667 35.2 56.8993 35.2 58.6667C35.2 60.434 33.7673 61.8667 32 61.8667ZM46.9333 58.6667C46.9333 60.434 45.5007 61.8667 43.7333 61.8667H36.2389C37.6977 59.9827 37.6977 57.3507 36.2389 55.4667H46.9333V58.6667ZM46.9333 53.3333H17.0667V11.7333H46.9333V53.3333ZM46.9333 9.6H17.0667V5.33333C17.0667 3.566 18.4993 2.13333 20.2667 2.13333H43.7333C45.5007 2.13333 46.9333 3.566 46.9333 5.33333V9.6Z" fill="#2D9CDB"/>
<path d="M35.2 5.33337H24.5333V7.46671H35.2V5.33337Z" fill="#2D9CDB"/>
<path d="M27.7333 21.3334H23.4667C21.6993 21.3334 20.2667 22.766 20.2667 24.5334V28.8C20.2667 30.5674 21.6993 32 23.4667 32H27.7333C29.5007 32 30.9333 30.5674 30.9333 28.8V24.5334C30.9333 22.766 29.5007 21.3334 27.7333 21.3334ZM28.8 28.8C28.8 29.3891 28.3224 29.8667 27.7333 29.8667H23.4667C22.8776 29.8667 22.4 29.3891 22.4 28.8V24.5334C22.4 23.9443 22.8776 23.4667 23.4667 23.4667H27.7333C28.3224 23.4667 28.8 23.9443 28.8 24.5334V28.8Z" fill="#2D9CDB"/>
<path d="M40.5333 21.3334H36.2667C34.4993 21.3334 33.0667 22.766 33.0667 24.5334V28.8C33.0667 30.5674 34.4993 32 36.2667 32H40.5333C42.3007 32 43.7333 30.5674 43.7333 28.8V24.5334C43.7333 22.766 42.3007 21.3334 40.5333 21.3334ZM41.6 28.8C41.6 29.3891 41.1224 29.8667 40.5333 29.8667H36.2667C35.6776 29.8667 35.2 29.3891 35.2 28.8V24.5334C35.2 23.9443 35.6776 23.4667 36.2667 23.4667H40.5333C41.1224 23.4667 41.6 23.9443 41.6 24.5334V28.8Z" fill="#2D9CDB"/>
<path d="M27.7333 34.1333H23.4667C21.6993 34.1333 20.2667 35.566 20.2667 37.3333V41.6C20.2667 43.3673 21.6993 44.8 23.4667 44.8H27.7333C29.5007 44.8 30.9333 43.3673 30.9333 41.6V37.3333C30.9333 35.566 29.5007 34.1333 27.7333 34.1333ZM28.8 41.6C28.8 42.189 28.3224 42.6666 27.7333 42.6666H23.4667C22.8776 42.6666 22.4 42.189 22.4 41.6V37.3333C22.4 36.7442 22.8776 36.2666 23.4667 36.2666H27.7333C28.3224 36.2666 28.8 36.7442 28.8 37.3333V41.6Z" fill="#2D9CDB"/>
<path d="M40.5333 34.1333H36.2667C34.4993 34.1333 33.0667 35.566 33.0667 37.3333V41.6C33.0667 43.3673 34.4993 44.8 36.2667 44.8H40.5333C42.3007 44.8 43.7333 43.3673 43.7333 41.6V37.3333C43.7333 35.566 42.3007 34.1333 40.5333 34.1333ZM41.6 41.6C41.6 42.189 41.1224 42.6666 40.5333 42.6666H36.2667C35.6776 42.6666 35.2 42.189 35.2 41.6V37.3333C35.2 36.7442 35.6776 36.2666 36.2667 36.2666H40.5333C41.1224 36.2666 41.6 36.7442 41.6 37.3333V41.6Z" fill="#2D9CDB"/>
<path d="M23.4667 13.8667H20.2667C19.6776 13.8667 19.2 14.3443 19.2 14.9334V18.1334C19.2 18.7224 19.6776 19.2 20.2667 19.2C20.8557 19.2 21.3333 18.7224 21.3333 18.1334V16H23.4667C24.0557 16 24.5333 15.5224 24.5333 14.9334C24.5333 14.3443 24.0557 13.8667 23.4667 13.8667Z" fill="#2D9CDB"/>
<path d="M29.8667 13.8667H27.7333C27.1443 13.8667 26.6667 14.3443 26.6667 14.9334C26.6667 15.5224 27.1443 16 27.7333 16H29.8667C30.4557 16 30.9333 15.5224 30.9333 14.9334C30.9333 14.3443 30.4557 13.8667 29.8667 13.8667Z" fill="#2D9CDB"/>
<path d="M39.4667 5.33337H37.3333V7.46671H39.4667V5.33337Z" fill="#2D9CDB"/>
</svg>
