<svg width="64" height="64" viewBox="0 0 64 64" fill="none" xmlns="http://www.w3.org/2000/svg">
<g clip-path="url(#clip0)">
<path d="M24.5343 43.7312H20.2683V39.4652C20.2683 38.8762 19.7908 38.3987 19.2018 38.3987H14.9357C14.3468 38.3987 13.8692 38.8762 13.8692 39.4652V43.7312H9.60318C9.0142 43.7312 8.53667 44.2088 8.53667 44.7977V49.0638C8.53667 49.6528 9.0142 50.1303 9.60318 50.1303H13.8692V54.3963C13.8692 54.9853 14.3468 55.4629 14.9357 55.4629H19.2018C19.7908 55.4629 20.2683 54.9853 20.2683 54.3963V50.1303H24.5343C25.1233 50.1303 25.6008 49.6528 25.6008 49.0638V44.7977C25.6008 44.2088 25.1233 43.7312 24.5343 43.7312ZM23.4678 47.9973H19.2018C18.6128 47.9973 18.1353 48.4748 18.1353 49.0638V53.3298H16.0022V49.0638C16.0022 48.4748 15.5247 47.9973 14.9357 47.9973H10.6697V45.8643H14.9357C15.5247 45.8643 16.0022 45.3867 16.0022 44.7977V40.5317H18.1353V44.7977C18.1353 45.3867 18.6128 45.8643 19.2018 45.8643H23.4678V47.9973Z" fill="#2D9CDB"/>
<path d="M63.8886 44.9822C63.0706 37.6329 56.1681 30.7571 48.8124 29.9732C48.1877 29.9043 47.5596 29.8687 46.931 29.8666H35.1994V25.6005H33.0664V23.4675C33.0664 21.1115 31.1564 19.2015 28.8004 19.2015H23.4678C22.2897 19.2015 21.3348 18.2465 21.3348 17.0685C21.3348 15.8904 22.2897 14.9354 23.4678 14.9354H40.532C42.888 14.9354 44.798 13.0254 44.798 10.6694C44.798 8.31333 42.888 6.40334 40.532 6.40334H35.1994C34.0213 6.40334 33.0664 5.44841 33.0664 4.27032V0.00427246H30.9334V4.27032C30.9334 6.62637 32.8434 8.53636 35.1994 8.53636H40.532C41.7101 8.53636 42.665 9.49129 42.665 10.6694C42.665 11.8475 41.7101 12.8024 40.532 12.8024H23.4678C21.1117 12.8024 19.2018 14.7124 19.2018 17.0685C19.2018 19.4245 21.1117 21.3345 23.4678 21.3345H28.8004C29.9784 21.3345 30.9334 22.2894 30.9334 23.4675V25.6005H28.8004V29.8666H17.0687C16.4395 29.8681 15.8107 29.9036 15.1853 29.9732C7.82635 30.7625 0.928156 37.6383 0.112275 44.9876C-0.959168 54.3508 5.76252 62.8098 15.1258 63.8812C18.9386 64.3176 22.7871 63.4558 26.0498 61.4355C27.4546 60.5159 29.0602 59.9485 30.7307 59.7813C31.556 59.7161 32.3848 59.7132 33.2104 59.7728C34.9073 59.9369 36.5388 60.5108 37.9649 61.4451C45.9817 66.3995 56.4971 63.9171 61.4516 55.9001C63.4676 52.6381 64.3261 48.792 63.8886 44.9822ZM30.9334 27.7336H33.0664V29.8666H30.9334V27.7336ZM58.0601 56.8856C53.2383 62.2789 45.2422 63.4364 39.089 59.6318C37.3707 58.5129 35.405 57.8309 33.3629 57.6449C32.9128 57.6123 32.4585 57.5959 31.9999 57.5959C31.5146 57.5959 31.04 57.6161 30.5622 57.6535C28.5512 57.8461 26.6165 58.5215 24.9225 59.6223C17.9099 63.961 8.70795 61.7935 4.36912 54.781C2.60285 51.9262 1.85016 48.5595 2.2325 45.2243C2.93426 38.9085 9.0923 32.7739 15.4146 32.0945C15.9638 32.0331 16.516 32.0015 17.0687 31.9996H46.931C47.4836 32 48.0358 32.0295 48.5852 32.0881C54.9064 32.7675 61.0634 38.9021 61.7673 45.2179C62.2701 49.4596 60.919 53.712 58.0601 56.8856Z" fill="#2D9CDB"/>
<path d="M46.9311 36.2656C44.575 36.2656 42.665 38.1756 42.665 40.5317C42.665 42.8877 44.575 44.7977 46.9311 44.7977C49.2871 44.7977 51.1971 42.8877 51.1971 40.5317C51.1971 38.1756 49.2871 36.2656 46.9311 36.2656ZM46.9311 42.6647C45.753 42.6647 44.7981 41.7098 44.7981 40.5317C44.7981 39.3536 45.753 38.3986 46.9311 38.3986C48.1092 38.3986 49.0641 39.3536 49.0641 40.5317C49.0641 41.7098 48.109 42.6647 46.9311 42.6647Z" fill="#2D9CDB"/>
<path d="M46.9311 49.0637C44.575 49.0637 42.665 50.9737 42.665 53.3298C42.665 55.6858 44.575 57.5958 46.9311 57.5958C49.2871 57.5958 51.1971 55.6858 51.1971 53.3298C51.1971 50.9737 49.2871 49.0637 46.9311 49.0637ZM46.9311 55.4628C45.753 55.4628 44.7981 54.5079 44.7981 53.3298C44.7981 52.1517 45.753 51.1967 46.9311 51.1967C48.1092 51.1967 49.0641 52.1517 49.0641 53.3298C49.0641 54.5079 48.109 55.4628 46.9311 55.4628Z" fill="#2D9CDB"/>
<path d="M39.4655 42.6647C37.1094 42.6647 35.1994 44.5747 35.1994 46.9307C35.1994 49.2868 37.1094 51.1968 39.4655 51.1968C41.8215 51.1968 43.7315 49.2868 43.7315 46.9307C43.7315 44.5747 41.8215 42.6647 39.4655 42.6647ZM39.4655 49.0637C38.2874 49.0637 37.3325 48.1088 37.3325 46.9307C37.3325 45.7526 38.2874 44.7977 39.4655 44.7977C40.6436 44.7977 41.5985 45.7526 41.5985 46.9307C41.5985 48.1088 40.6435 49.0637 39.4655 49.0637Z" fill="#2D9CDB"/>
<path d="M54.3967 42.6647C52.0406 42.6647 50.1306 44.5747 50.1306 46.9307C50.1306 49.2868 52.0406 51.1968 54.3967 51.1968C56.7527 51.1968 58.6627 49.2868 58.6627 46.9307C58.6627 44.5747 56.7527 42.6647 54.3967 42.6647ZM54.3967 49.0637C53.2186 49.0637 52.2636 48.1088 52.2636 46.9307C52.2636 45.7526 53.2186 44.7977 54.3967 44.7977C55.5748 44.7977 56.5297 45.7526 56.5297 46.9307C56.5297 48.1088 55.5746 49.0637 54.3967 49.0637Z" fill="#2D9CDB"/>
</g>
<defs>
<clipPath id="clip0">
<rect width="64" height="64" fill="white"/>
</clipPath>
</defs>
</svg>
