<svg width="64" height="64" viewBox="0 0 64 64" fill="none" xmlns="http://www.w3.org/2000/svg">
<path d="M59.871 18.5806C62.1482 18.5806 64 16.7288 64 14.4516V12.3871C64 10.1099 62.1482 8.25806 59.871 8.25806H51.6129V6.19355C52.7515 6.19355 53.6774 5.26764 53.6774 4.12903V2.06452C53.6774 0.925907 52.7515 0 51.6129 0H2.06452C0.925907 0 0 0.925907 0 2.06452V4.12903C0 5.26764 0.925907 6.19355 2.06452 6.19355V27.4259L0 25.4763V64H40.7898L12.3725 37.1613H41.2903V54.7097C41.2903 56.4168 42.6799 57.8064 44.3871 57.8064H60.9032C62.6104 57.8064 64 56.4168 64 54.7097V27.871C64 26.1638 62.6104 24.7742 60.9032 24.7742H51.6129V18.5806H59.871ZM55.7419 12.3871H33.0323V10.3226H55.7419V12.3871ZM30.9677 15.62L27.6678 13.4194L30.9677 11.2187V15.62ZM33.0323 14.4516H55.7419V16.5161H33.0323V14.4516ZM61.9355 12.3871V14.4516C61.9355 15.5902 61.0096 16.5161 59.871 16.5161H57.8064V10.3226H59.871C61.0096 10.3226 61.9355 11.2485 61.9355 12.3871ZM2.06452 2.06452H51.6129L51.6139 4.12903H2.06452V2.06452ZM2.06452 61.9355V59.871H4.12903V57.8064H2.06452V55.7419H4.12903V53.6774H2.06452V51.6129H4.12903V49.5484H2.06452V47.4839H4.12903V45.4194H2.06452V43.3548H4.12903V41.2903H2.06452V39.2258H4.12903V37.1613H2.06452V30.2656L35.5973 61.9355H2.06452ZM61.9355 27.871V54.7097C61.9355 55.2792 61.4718 55.7419 60.9032 55.7419H44.3871C43.8185 55.7419 43.3548 55.2792 43.3548 54.7097V27.871C43.3548 27.3014 43.8185 26.8387 44.3871 26.8387H60.9032C61.4718 26.8387 61.9355 27.3014 61.9355 27.871ZM49.5484 24.7742H32V26.8387H41.4803C41.3644 27.1628 41.2903 27.5076 41.2903 27.871V28.9032H32V30.9677H41.2903V35.0968H10.1865L4.12903 29.376V6.19355H49.5484V8.25806H31.687L23.9451 13.4194L31.687 18.5806H49.5484V24.7742Z" fill="#2D9CDB"/>
<path d="M21.6774 12.3872H14.5806L12.7152 26.3711L9.78578 22.7098H6.19354V24.7743H8.79485L14.1235 31.4356L16.3871 14.4517H21.6774V12.3872Z" fill="#2D9CDB"/>
<path d="M28.1734 17.8508L23.7419 22.2823L19.3105 17.8508L17.8508 19.3105L22.2823 23.742L17.8508 28.1734L19.3105 29.6331L23.7419 25.2016L28.1734 29.6331L29.6331 28.1734L25.2016 23.742L29.6331 19.3105L28.1734 17.8508Z" fill="#2D9CDB"/>
<path d="M32 20.6453H47.4839V22.7098H32V20.6453Z" fill="#2D9CDB"/>
<path d="M6.19354 39.8452V57.8064H25.2107L6.19354 39.8452ZM8.25806 44.635L20.0186 55.7419H8.25806V44.635Z" fill="#2D9CDB"/>
<path d="M59.871 28.9033H45.4193V37.1614H59.871V28.9033ZM57.8064 35.0969H47.4839V30.9678H57.8064V35.0969Z" fill="#2D9CDB"/>
<path d="M53.6774 41.2903H59.871V43.3548H53.6774V41.2903Z" fill="#2D9CDB"/>
<path d="M45.4193 47.4839H51.6129V49.5484H45.4193V47.4839Z" fill="#2D9CDB"/>
<path d="M45.4193 51.6128H51.6129V53.6773H45.4193V51.6128Z" fill="#2D9CDB"/>
<path d="M47.4839 45.4194H49.5484V43.3549H51.6129V41.2903H49.5484V39.2258H47.4839V41.2903H45.4193V43.3549H47.4839V45.4194Z" fill="#2D9CDB"/>
<path d="M58.1089 47.7864L56.7742 49.1211L55.4395 47.7864L53.9799 49.2461L55.3145 50.5807L53.9799 51.9154L55.4395 53.3751L56.7742 52.0404L58.1089 53.3751L59.5686 51.9154L58.2339 50.5807L59.5686 49.2461L58.1089 47.7864Z" fill="#2D9CDB"/>
</svg>
