<svg width="64" height="64" viewBox="0 0 64 64" fill="none" xmlns="http://www.w3.org/2000/svg">
<g clip-path="url(#clip0)">
<path d="M17.9948 64.0002C15.7895 64.0002 13.9961 62.2068 13.9961 60.0014C13.9961 57.7961 15.7895 56.0027 17.9948 56.0027C18.5474 56.0027 18.9945 56.4493 18.9945 57.0024C18.9945 57.5549 18.5474 58.0021 17.9948 58.0021C16.8921 58.0021 15.9955 58.8987 15.9955 60.0014C15.9955 61.1041 16.8921 62.0008 17.9948 62.0008C18.5474 62.0008 18.9945 62.4474 18.9945 63.0005C18.9945 63.5531 18.5474 64.0002 17.9948 64.0002Z" fill="#2D9CDB"/>
<path d="M56.0023 58.0021H17.9948C17.4418 58.0021 16.9951 57.5549 16.9951 57.0024C16.9951 56.4493 17.4418 56.0027 17.9948 56.0027H56.0023C56.5554 56.0027 57.002 56.4493 57.002 57.0024C57.002 57.5549 56.5554 58.0021 56.0023 58.0021Z" fill="#2D9CDB"/>
<path d="M56.0023 64.0001H17.9948C17.4418 64.0001 16.9951 63.553 16.9951 63.0004C16.9951 62.4474 17.4418 62.0007 17.9948 62.0007H56.0023C56.5554 62.0007 57.002 62.4474 57.002 63.0004C57.002 63.553 56.5554 64.0001 56.0023 64.0001Z" fill="#2D9CDB"/>
<path d="M56.0023 58.0021C55.4497 58.0021 55.0026 57.555 55.0026 57.0024C55.0026 56.4494 55.4497 56.0027 56.0023 56.0027C57.105 56.0027 58.0017 55.106 58.0017 54.0033C58.0017 53.4503 58.4488 53.0037 59.0014 53.0037C59.5544 53.0037 60.0011 53.4503 60.0011 54.0033C60.0011 56.2087 58.2077 58.0021 56.0023 58.0021Z" fill="#2D9CDB"/>
<path d="M59.0014 5.01868C58.4488 5.01868 58.0017 4.57156 58.0017 4.019C58.0017 2.91632 57.105 2.01963 56.0023 2.01963C55.4497 2.01963 55.0026 1.57251 55.0026 1.01995C55.0026 0.4669 55.4497 0.0202637 56.0023 0.0202637C58.2077 0.0202637 60.0011 1.81364 60.0011 4.019C60.0011 4.57156 59.5544 5.01868 59.0014 5.01868Z" fill="#2D9CDB"/>
<path d="M14.9958 5.01868C14.4427 5.01868 13.9961 4.57156 13.9961 4.019C13.9961 1.81364 15.7895 0.0202637 17.9948 0.0202637C18.5474 0.0202637 18.9945 0.4669 18.9945 1.01995C18.9945 1.57251 18.5474 2.01963 17.9948 2.01963C16.8921 2.01963 15.9955 2.91632 15.9955 4.019C15.9955 4.57156 15.5483 5.01868 14.9958 5.01868Z" fill="#2D9CDB"/>
<path d="M56.0023 64.0001C55.4497 64.0001 55.0026 63.553 55.0026 63.0004C55.0026 62.4474 55.4497 62.0007 56.0023 62.0007C57.105 62.0007 58.0017 61.1041 58.0017 60.0014C58.0017 59.4483 58.4488 59.0017 59.0014 59.0017C59.5544 59.0017 60.0011 59.4483 60.0011 60.0014C60.0011 62.2067 58.2077 64.0001 56.0023 64.0001Z" fill="#2D9CDB"/>
<path d="M59.0014 24.0128C58.7456 24.0128 58.4898 23.9147 58.295 23.7199C57.9041 23.3289 57.9041 22.6973 58.295 22.3063L62.0004 18.6004V7.01817H59.0014C58.4488 7.01817 58.0017 6.57104 58.0017 6.01848C58.0017 5.46543 58.4488 5.0188 59.0014 5.0188H63.0001C63.5532 5.0188 63.9998 5.46543 63.9998 6.01848V19.0144C63.9998 19.2804 63.8948 19.5342 63.7069 19.7212L59.7082 23.7199C59.5124 23.9147 59.2576 24.0128 59.0014 24.0128V24.0128Z" fill="#2D9CDB"/>
<path d="M56.0023 2.01963H17.9948C17.4418 2.01963 16.9951 1.57251 16.9951 1.01995C16.9951 0.4669 17.4418 0.0202637 17.9948 0.0202637H56.0023C56.5554 0.0202637 57.002 0.4669 57.002 1.01995C57.002 1.57251 56.5554 2.01963 56.0023 2.01963Z" fill="#2D9CDB"/>
<path d="M14.9958 61.0012C14.4427 61.0012 13.9961 60.5541 13.9961 60.0015V4.01921C13.9961 3.46617 14.4427 3.01953 14.9958 3.01953C15.5483 3.01953 15.9955 3.46617 15.9955 4.01921V60.0015C15.9955 60.5541 15.5483 61.0012 14.9958 61.0012Z" fill="#2D9CDB"/>
<path d="M55.0027 61.0011H18.9945C18.4414 61.0011 17.9948 60.554 17.9948 60.0014C17.9948 59.4483 18.4414 59.0017 18.9945 59.0017H55.0027C55.5557 59.0017 56.0023 59.4483 56.0023 60.0014C56.0023 60.554 55.5557 61.0011 55.0027 61.0011Z" fill="#2D9CDB"/>
<path d="M55.0026 61.0011C54.4501 61.0011 54.003 60.554 54.003 60.0014V57.0024C54.003 56.4493 54.4501 56.0027 55.0026 56.0027C55.5557 56.0027 56.0023 56.4493 56.0023 57.0024V60.0014C56.0023 60.554 55.5557 61.0011 55.0026 61.0011Z" fill="#2D9CDB"/>
<path d="M18.9945 61.0011C18.4414 61.0011 17.9948 60.554 17.9948 60.0014V57.0024C17.9948 56.4493 18.4414 56.0027 18.9945 56.0027C19.5471 56.0027 19.9942 56.4493 19.9942 57.0024V60.0014C19.9942 60.554 19.5471 61.0011 18.9945 61.0011Z" fill="#2D9CDB"/>
<path d="M59.0014 61.0012C58.4488 61.0012 58.0017 60.5541 58.0017 60.0015V4.01921C58.0017 3.46617 58.4488 3.01953 59.0014 3.01953C59.5544 3.01953 60.001 3.46617 60.001 4.01921V60.0015C60.001 60.5541 59.5544 61.0012 59.0014 61.0012Z" fill="#2D9CDB"/>
<path d="M14.9933 7.01817H1.00017C0.447124 7.01817 0.000488281 6.57104 0.000488281 6.01848C0.000488281 5.46544 0.447124 5.0188 1.00017 5.0188H14.9933C15.5464 5.0188 15.993 5.46544 15.993 6.01848C15.993 6.57104 15.5464 7.01817 14.9933 7.01817Z" fill="#2D9CDB"/>
<path d="M14.9933 57.0023H5.99858C5.44554 57.0023 4.9989 56.5552 4.9989 56.0026C4.9989 55.4496 5.44554 55.0029 5.99858 55.0029H14.9933C15.5463 55.0029 15.993 55.4496 15.993 56.0026C15.993 56.5552 15.5463 57.0023 14.9933 57.0023Z" fill="#2D9CDB"/>
<path d="M1.00017 52.0039C0.447124 52.0039 0.000488281 51.5568 0.000488281 51.0043V6.01848C0.000488281 5.46543 0.447124 5.0188 1.00017 5.0188C1.55273 5.0188 1.99986 5.46543 1.99986 6.01848V51.0043C1.99986 51.5568 1.55273 52.0039 1.00017 52.0039Z" fill="#2D9CDB"/>
<path d="M5.99859 57.0023C5.74232 57.0023 5.48655 56.9042 5.29178 56.7094L0.293364 51.711C-0.0976253 51.32 -0.0976253 50.6884 0.293364 50.2974C0.683866 49.9064 1.31599 49.9064 1.70649 50.2974L6.70491 55.2958C7.0959 55.6868 7.0959 56.3184 6.70491 56.7094C6.51015 56.9042 6.25437 57.0023 5.99859 57.0023Z" fill="#2D9CDB"/>
<path d="M5.99859 57.0024C5.44554 57.0024 4.9989 56.5553 4.9989 56.0027V51.0043C4.9989 50.4513 5.44554 50.0046 5.99859 50.0046C6.55115 50.0046 6.99827 50.4513 6.99827 51.0043V56.0027C6.99827 56.5553 6.55115 57.0024 5.99859 57.0024Z" fill="#2D9CDB"/>
<path d="M5.99859 52.004H1.00017C0.447124 52.004 0.000488281 51.5569 0.000488281 51.0043C0.000488281 50.4513 0.447124 50.0046 1.00017 50.0046H5.99859C6.55115 50.0046 6.99827 50.4513 6.99827 51.0043C6.99827 51.5569 6.55115 52.004 5.99859 52.004Z" fill="#2D9CDB"/>
<path d="M14.9957 21.0138H7.99791C7.44487 21.0138 6.99823 20.5667 6.99823 20.0141C6.99823 19.461 7.44487 19.0144 7.99791 19.0144H14.9957C15.5483 19.0144 15.9954 19.461 15.9954 20.0141C15.9954 20.5667 15.5483 21.0138 14.9957 21.0138Z" fill="#2D9CDB"/>
<path d="M14.9957 27.0118H7.99791C7.44487 27.0118 6.99823 26.5647 6.99823 26.0121C6.99823 25.4591 7.44487 25.0125 7.99791 25.0125H14.9957C15.5483 25.0125 15.9954 25.4591 15.9954 26.0121C15.9954 26.5647 15.5483 27.0118 14.9957 27.0118Z" fill="#2D9CDB"/>
<path d="M14.9957 33.0099H7.99791C7.44487 33.0099 6.99823 32.5627 6.99823 32.0102C6.99823 31.4571 7.44487 31.0105 7.99791 31.0105H14.9957C15.5483 31.0105 15.9954 31.4571 15.9954 32.0102C15.9954 32.5627 15.5483 33.0099 14.9957 33.0099Z" fill="#2D9CDB"/>
<path d="M14.9957 39.0082H7.99791C7.44487 39.0082 6.99823 38.561 6.99823 38.0085C6.99823 37.4554 7.44487 37.0088 7.99791 37.0088H14.9957C15.5483 37.0088 15.9954 37.4554 15.9954 38.0085C15.9954 38.561 15.5483 39.0082 14.9957 39.0082Z" fill="#2D9CDB"/>
<path d="M49.9847 46.0267H23.9827C23.4296 46.0267 22.983 45.5796 22.983 45.027C22.983 44.474 23.4296 44.0273 23.9827 44.0273H49.9847C50.5372 44.0273 50.9843 44.474 50.9843 45.027C50.9843 45.5796 50.5372 46.0267 49.9847 46.0267Z" fill="#2D9CDB"/>
<path d="M43.9866 49.025H29.9827C29.4302 49.025 28.983 48.5779 28.983 48.0253C28.983 47.4723 29.4302 47.0256 29.9827 47.0256H43.9866C44.5392 47.0256 44.9863 47.4723 44.9863 48.0253C44.9863 48.5779 44.5392 49.025 43.9866 49.025Z" fill="#2D9CDB"/>
<path d="M28.0053 37.0214C27.4527 37.0214 27.0056 36.5747 27.0056 36.0217C27.0056 33.8178 28.799 32.0239 31.0044 32.0239C31.5574 32.0239 32.004 32.471 32.004 33.0236C32.004 33.5767 31.5574 34.0233 31.0044 34.0233C29.9017 34.0233 29.005 34.919 29.005 36.0217C29.005 36.5737 28.5584 37.0214 28.0053 37.0214V37.0214Z" fill="#2D9CDB"/>
<path d="M34.0034 34.0296H31.0043C30.4518 34.0296 30.0046 33.5825 30.0046 33.03C30.0046 32.4769 30.4518 32.0303 31.0043 32.0303H34.0034C34.5564 32.0303 35.0031 32.4769 35.0031 33.03C35.0031 33.5825 34.5564 34.0296 34.0034 34.0296Z" fill="#2D9CDB"/>
<path d="M28.0053 37.9893C27.4527 37.9893 27.0056 37.5422 27.0056 36.9896V36.0207C27.0056 35.4681 27.4527 35.021 28.0053 35.021C28.5584 35.021 29.005 35.4681 29.005 36.0207V36.9896C29.005 37.5422 28.5584 37.9893 28.0053 37.9893Z" fill="#2D9CDB"/>
<path d="M46.0016 37.0214C45.4491 37.0214 45.0019 36.5747 45.0019 36.0217C45.0019 34.919 44.1052 34.0233 43.0026 34.0233C42.45 34.0233 42.0029 33.5767 42.0029 33.0236C42.0029 32.471 42.45 32.0239 43.0026 32.0239C45.2079 32.0239 47.0013 33.8178 47.0013 36.0217C47.0013 36.5737 46.5547 37.0214 46.0016 37.0214Z" fill="#2D9CDB"/>
<path d="M43.0026 34.0296H40.0015C39.449 34.0296 39.0019 33.5825 39.0019 33.03C39.0019 32.4769 39.449 32.0303 40.0015 32.0303H43.0026C43.5556 32.0303 44.0022 32.4769 44.0022 33.03C44.0022 33.5825 43.5556 34.0296 43.0026 34.0296Z" fill="#2D9CDB"/>
<path d="M46.0016 37.9893C45.449 37.9893 45.0019 37.5422 45.0019 36.9896V36.0207C45.0019 35.4681 45.449 35.021 46.0016 35.021C46.5546 35.021 47.0013 35.4681 47.0013 36.0207V36.9896C47.0013 37.5422 46.5546 37.9893 46.0016 37.9893Z" fill="#2D9CDB"/>
<path d="M34.0034 34.0295C33.4508 34.0295 33.0037 33.5824 33.0037 33.0298V30.3476C33.0037 29.7945 33.4508 29.3479 34.0034 29.3479C34.5564 29.3479 35.0031 29.7945 35.0031 30.3476V33.0298C35.0031 33.5814 34.5564 34.0295 34.0034 34.0295Z" fill="#2D9CDB"/>
<path d="M40.0015 34.0232C39.449 34.0232 39.0019 33.5766 39.0019 33.0235V30.3476C39.0019 29.7945 39.449 29.3479 40.0015 29.3479C40.5546 29.3479 41.0012 29.7945 41.0012 30.3476V33.0235C41.0012 33.5756 40.5546 34.0232 40.0015 34.0232Z" fill="#2D9CDB"/>
<path d="M37.0024 32.0284C32.5927 32.0284 29.0049 28.4402 29.0049 24.0309C29.0049 23.4779 29.4521 23.0312 30.0046 23.0312C30.5577 23.0312 31.0043 23.4779 31.0043 24.0309C31.0043 27.3385 33.6944 30.029 37.0024 30.029C40.3105 30.029 43.0005 27.3385 43.0005 24.0309C43.0005 23.4779 43.4476 23.0312 44.0002 23.0312C44.5533 23.0312 44.9999 23.4779 44.9999 24.0309C44.9999 28.4402 41.4122 32.0284 37.0024 32.0284Z" fill="#2D9CDB"/>
<path d="M44.0022 22.0364C43.4496 22.0364 43.0025 21.5893 43.0025 21.0368C43.0025 17.7287 40.3124 15.0387 37.0044 15.0387C33.6963 15.0387 31.0063 17.7287 31.0063 21.0368C31.0063 21.5893 30.5596 22.0364 30.0066 22.0364C29.454 22.0364 29.0069 21.5893 29.0069 21.0368C29.0069 16.627 32.5951 13.0393 37.0044 13.0393C41.4141 13.0393 45.0018 16.627 45.0018 21.0368C45.0018 21.5893 44.5552 22.0364 44.0022 22.0364Z" fill="#2D9CDB"/>
<path d="M30.0046 25.0306C29.4521 25.0306 29.0049 24.5835 29.0049 24.031V21.0339C29.0049 20.4808 29.4521 20.0342 30.0046 20.0342C30.5577 20.0342 31.0043 20.4808 31.0043 21.0339V24.031C31.0043 24.5825 30.5577 25.0306 30.0046 25.0306Z" fill="#2D9CDB"/>
<path d="M44.0003 25.0306C43.4477 25.0306 43.0006 24.5825 43.0006 24.03L43.0025 21.0339C43.0025 20.4818 43.4506 20.0352 44.0022 20.0352H44.0032C44.5553 20.0352 45.0019 20.4828 45.0019 21.0358L44.9999 24.0319C44.9999 24.5825 44.5523 25.0306 44.0003 25.0306Z" fill="#2D9CDB"/>
<path d="M44.0002 25.0306H38.0001C37.7341 25.0306 37.4793 24.9256 37.2924 24.7362L37.0014 24.4458L36.7095 24.7377C36.5216 24.9256 36.2688 25.0306 36.0027 25.0306H30.0046C29.4521 25.0306 29.0049 24.5834 29.0049 24.0309C29.0049 23.4778 29.4521 23.0312 30.0046 23.0312H35.5888L36.2956 22.3234C36.4835 22.1355 36.7364 22.0305 37.0024 22.0305H37.0034C37.2684 22.0305 37.5232 22.1355 37.7102 22.3244L38.4151 23.0312H44.0002C44.5533 23.0312 44.9999 23.4778 44.9999 24.0309C44.9999 24.5834 44.5533 25.0306 44.0002 25.0306Z" fill="#2D9CDB"/>
<path d="M43.9324 21.0357H30.0788C29.5258 21.0357 29.0792 20.5886 29.0792 20.0361C29.0792 19.483 29.5258 19.0364 30.0788 19.0364H43.9314C44.484 19.0364 44.9311 19.483 44.9311 20.0361C44.9311 20.5886 44.484 21.0357 43.9324 21.0357Z" fill="#2D9CDB"/>
<path d="M44.0031 23.0181C43.6795 23.0181 43.3603 22.8609 43.1684 22.57C42.8639 22.1092 42.9898 21.4897 43.4506 21.1847L46.4477 19.2034C46.9085 18.8983 47.5274 19.0242 47.833 19.485C48.1381 19.9458 48.0121 20.5657 47.5513 20.8708L44.5542 22.8521C44.3844 22.9639 44.192 23.0181 44.0031 23.0181V23.0181Z" fill="#2D9CDB"/>
<path d="M46.9983 25.0305C46.8074 25.0305 46.6126 24.9754 46.4413 24.8602L43.4442 22.8481C42.9869 22.5401 42.8648 21.9192 43.1723 21.4604C43.4794 21.0025 44.1012 20.8785 44.5601 21.1885L47.5572 23.201C48.015 23.509 48.1371 24.1295 47.8291 24.5883C47.6372 24.8743 47.3204 25.0305 46.9983 25.0305V25.0305Z" fill="#2D9CDB"/>
<path d="M36.9854 36.0308C36.7945 36.0308 36.6008 35.9757 36.4289 35.861L33.4455 33.8582C32.9877 33.5507 32.8661 32.9298 33.1736 32.4709C33.4807 32.0131 34.0996 31.8901 34.5614 32.1991L37.5443 34.2013C38.0022 34.5094 38.1242 35.1303 37.8162 35.5891C37.6244 35.8756 37.3085 36.0308 36.9854 36.0308V36.0308Z" fill="#2D9CDB"/>
<path d="M36.9873 36.031C36.6637 36.031 36.3459 35.8739 36.1536 35.5849C35.848 35.1241 35.973 34.5042 36.4328 34.1986L39.4479 32.1963C39.9087 31.8893 40.5282 32.0162 40.8342 32.475C41.1403 32.9358 41.0153 33.5557 40.5555 33.8618L37.5403 35.8641C37.3695 35.9778 37.1786 36.031 36.9873 36.031V36.031Z" fill="#2D9CDB"/>
<path d="M40.0298 22.0365C39.4768 22.0365 39.0247 21.5894 39.0247 21.0368C39.0247 20.4837 39.467 20.0371 40.0186 20.0371H40.0298C40.5814 20.0371 41.0295 20.4837 41.0295 21.0368C41.0295 21.5894 40.5814 22.0365 40.0298 22.0365Z" fill="#2D9CDB"/>
<path d="M34.0337 22.0365C33.4806 22.0365 33.0286 21.5894 33.0286 21.0368C33.0286 20.4837 33.4709 20.0371 34.0224 20.0371H34.0337C34.5853 20.0371 35.0334 20.4837 35.0334 21.0368C35.0334 21.5894 34.5853 22.0365 34.0337 22.0365Z" fill="#2D9CDB"/>
<path d="M36.9825 41.0094C28.1635 41.0094 20.9875 33.8335 20.9875 25.0145C20.9875 16.195 28.1635 9.01953 36.9825 9.01953C45.802 9.01953 52.9774 16.195 52.9774 25.0145C52.9774 33.8335 45.8029 41.0094 36.9825 41.0094ZM36.9825 11.0189C29.2652 11.0189 22.9869 17.2967 22.9869 25.0145C22.9869 32.7318 29.2652 39.0101 36.9825 39.0101C44.7003 39.0101 50.9781 32.7318 50.9781 25.0145C50.9781 17.2967 44.7003 11.0189 36.9825 11.0189Z" fill="#2D9CDB"/>
</g>
<defs>
<clipPath id="clip0">
<rect width="64" height="64" fill="white"/>
</clipPath>
</defs>
</svg>
