<svg width="64" height="64" viewBox="0 0 64 64" fill="none" xmlns="http://www.w3.org/2000/svg">
<path d="M63.7867 8.95991L60.5867 4.69324C60.1989 4.22191 59.5025 4.15431 59.0312 4.54204C58.976 4.58738 58.9253 4.63804 58.88 4.69324L55.68 8.95991C55.5415 9.14458 55.4667 9.36911 55.4667 9.59991V59.7332C55.4667 62.0896 57.3769 63.9999 59.7333 63.9999C62.0897 63.9999 64 62.0896 64 59.7332V9.59991C64 9.36911 63.9252 9.14458 63.7867 8.95991ZM61.8667 59.7332C61.8667 60.9115 60.9116 61.8666 59.7333 61.8666C58.5551 61.8666 57.6 60.9115 57.6 59.7332V57.5999H61.8667V59.7332ZM61.8667 55.4666H57.6V53.3332H61.8667V55.4666ZM61.8667 51.1999H57.6V12.7999H61.8667V51.1999ZM61.8667 10.6666H57.6V9.95511L59.7333 7.11138L61.8667 9.95511V10.6666Z" fill="#2D9CDB"/>
<path d="M52.2709 0C52.2695 0 52.2681 0 52.2667 0H5.33333C4.74427 0 4.26667 0.4776 4.26667 1.06667V19.3067C1.7852 19.8171 0.0032 21.9999 0 24.5333V58.6667C0.00346667 61.6107 2.38933 63.9965 5.33333 64H43.7333C44.0161 63.9993 44.2872 63.8871 44.4875 63.6875L53.0208 55.1541C53.11 55.0635 53.1823 54.9576 53.2341 54.8416C53.2491 54.8085 53.2576 54.7765 53.2693 54.7424C53.3 54.6528 53.3187 54.5596 53.3248 54.4651C53.3248 54.4427 53.3376 54.4224 53.3376 54.4V1.06667C53.3376 0.4776 52.86 0 52.2709 0ZM32 58.6667C32 60.434 30.5673 61.8667 28.8 61.8667H5.33333C3.566 61.8667 2.13333 60.434 2.13333 58.6667V24.5333C2.13333 22.766 3.566 21.3333 5.33333 21.3333H28.8C30.5673 21.3333 32 22.766 32 24.5333V58.6667ZM18.1333 12.8V19.2H10.6667V12.8H18.1333ZM10.6667 10.6667V6.4H18.1333V10.6667H10.6667ZM27.7333 12.8V19.2H20.2667V12.8H27.7333ZM20.2667 10.6667V6.4H27.7333V10.6667H20.2667ZM29.8667 19.3067V12.8H37.3333V27.7333H34.1333V24.5333C34.1301 21.9999 32.3481 19.8171 29.8667 19.3067ZM29.8667 10.6667V6.4H37.3333V10.6667H29.8667ZM44.8 60.3584V55.4667H49.6917L44.8 60.3584ZM51.2 53.3333H43.7333C43.1443 53.3333 42.6667 53.8109 42.6667 54.4V61.8667H33.0389C33.7448 60.9489 34.1295 59.8245 34.1333 58.6667V29.8667H48C48.5891 29.8667 49.0667 29.3891 49.0667 28.8V5.33333C49.0667 4.74427 48.5891 4.26667 48 4.26667H9.6C9.01093 4.26667 8.53333 4.74427 8.53333 5.33333V19.2H6.4V2.13333H51.2V53.3333ZM46.9333 12.8V27.7333H39.4667V12.8H46.9333ZM39.4667 10.6667V6.4H46.9333V10.6667H39.4667Z" fill="#2D9CDB"/>
<path d="M28.8 24.5334H5.33333C4.74426 24.5334 4.26666 25.011 4.26666 25.6001V32.0001C4.26666 32.5892 4.74426 33.0668 5.33333 33.0668H28.8C29.3891 33.0668 29.8667 32.5892 29.8667 32.0001V25.6001C29.8667 25.011 29.3891 24.5334 28.8 24.5334ZM27.7333 30.9334H6.39999V26.6668H27.7333V30.9334Z" fill="#2D9CDB"/>
<path d="M29.8667 43.7334H23.4667C22.8776 43.7334 22.4 44.211 22.4 44.8001V57.6001C22.4 58.1891 22.8776 58.6667 23.4667 58.6667H29.8667C30.4557 58.6667 30.9333 58.1891 30.9333 57.6001V44.8001C30.9333 44.211 30.4557 43.7334 29.8667 43.7334ZM28.8 56.5334H24.5333V45.8667H28.8V56.5334Z" fill="#2D9CDB"/>
<path d="M29.8667 35.2H23.4667C22.8776 35.2 22.4 35.6776 22.4 36.2666V40.5333C22.4 41.1223 22.8776 41.5999 23.4667 41.5999H29.8667C30.4557 41.5999 30.9333 41.1223 30.9333 40.5333V36.2666C30.9333 35.6776 30.4557 35.2 29.8667 35.2ZM28.8 39.4666H24.5333V37.3333H28.8V39.4666Z" fill="#2D9CDB"/>
<path d="M20.2667 43.7334H13.8667C13.2776 43.7334 12.8 44.211 12.8 44.8001V49.0667C12.8 49.6558 13.2776 50.1334 13.8667 50.1334H20.2667C20.8557 50.1334 21.3333 49.6558 21.3333 49.0667V44.8001C21.3333 44.211 20.8557 43.7334 20.2667 43.7334ZM19.2 48.0001H14.9333V45.8667H19.2V48.0001Z" fill="#2D9CDB"/>
<path d="M20.2667 35.2H13.8667C13.2776 35.2 12.8 35.6776 12.8 36.2666V40.5333C12.8 41.1223 13.2776 41.5999 13.8667 41.5999H20.2667C20.8557 41.5999 21.3333 41.1223 21.3333 40.5333V36.2666C21.3333 35.6776 20.8557 35.2 20.2667 35.2ZM19.2 39.4666H14.9333V37.3333H19.2V39.4666Z" fill="#2D9CDB"/>
<path d="M10.6667 43.7334H4.26667C3.6776 43.7334 3.2 44.211 3.2 44.8001V49.0667C3.2 49.6558 3.6776 50.1334 4.26667 50.1334H10.6667C11.2557 50.1334 11.7333 49.6558 11.7333 49.0667V44.8001C11.7333 44.211 11.2557 43.7334 10.6667 43.7334ZM9.6 48.0001H5.33334V45.8667H9.6V48.0001Z" fill="#2D9CDB"/>
<path d="M10.6667 35.2H4.26667C3.6776 35.2 3.2 35.6776 3.2 36.2666V40.5333C3.2 41.1223 3.6776 41.5999 4.26667 41.5999H10.6667C11.2557 41.5999 11.7333 41.1223 11.7333 40.5333V36.2666C11.7333 35.6776 11.2557 35.2 10.6667 35.2ZM9.6 39.4666H5.33334V37.3333H9.6V39.4666Z" fill="#2D9CDB"/>
<path d="M20.2667 52.2666H13.8667C13.2776 52.2666 12.8 52.7442 12.8 53.3333V57.5999C12.8 58.189 13.2776 58.6666 13.8667 58.6666H20.2667C20.8557 58.6666 21.3333 58.189 21.3333 57.5999V53.3333C21.3333 52.7442 20.8557 52.2666 20.2667 52.2666ZM19.2 56.5333H14.9333V54.3999H19.2V56.5333Z" fill="#2D9CDB"/>
<path d="M10.6667 52.2666H4.26667C3.6776 52.2666 3.2 52.7442 3.2 53.3333V57.5999C3.2 58.189 3.6776 58.6666 4.26667 58.6666H10.6667C11.2557 58.6666 11.7333 58.189 11.7333 57.5999V53.3333C11.7333 52.7442 11.2557 52.2666 10.6667 52.2666ZM9.6 56.5333H5.33334V54.3999H9.6V56.5333Z" fill="#2D9CDB"/>
</svg>
