<svg width="64" height="64" viewBox="0 0 64 64" fill="none" xmlns="http://www.w3.org/2000/svg">
<path d="M40.2066 8.30948L41.6658 6.85031C38.0438 3.22682 32.1497 3.22682 28.5277 6.85031L29.9869 8.30948C32.8049 5.49244 37.3886 5.49244 40.2066 8.30948V8.30948Z" fill="#2D9CDB"/>
<path d="M53.6774 18.5807C53.6774 16.3035 51.8256 14.4517 49.5484 14.4517V16.5162C50.687 16.5162 51.6129 17.4421 51.6129 18.5807C51.6129 19.7193 50.687 20.6452 49.5484 20.6452V22.7097C51.8256 22.7097 53.6774 20.8579 53.6774 18.5807Z" fill="#2D9CDB"/>
<path d="M58.8387 16.5161H57.5348C56.6144 12.9602 53.3886 10.3226 49.5484 10.3226C49.0857 10.3226 48.6235 10.3619 48.1683 10.439C46.7974 4.41381 41.3659 0 35.0968 0C30.756 0 26.753 2.06552 24.2283 5.56804C23.4042 5.29738 22.5499 5.16129 21.6774 5.16129C18.31 5.16129 15.2671 7.25252 14.0212 10.3342C10.372 10.5217 7.3498 13.0943 6.46421 16.5161H5.16129C2.31552 16.5161 0 18.8317 0 21.6774V52.6452C0 55.4909 2.31552 57.8064 5.16129 57.8064H18.5806V61.9355H14.4516V64H49.5484V61.9355H45.4194V57.8064H58.8387C61.6845 57.8064 64 55.4909 64 52.6452V21.6774C64 18.8317 61.6845 16.5161 58.8387 16.5161ZM5.16129 18.5806H6.19355C6.19355 23.1341 9.89819 26.8387 14.4516 26.8387H20.6452V24.7742H14.4516C11.0358 24.7742 8.25806 21.9965 8.25806 18.5806C8.25806 15.1648 11.0358 12.3871 14.4516 12.3871L15.5126 12.4335L15.7409 11.6623C16.5131 9.05091 18.9541 7.22581 21.6774 7.22581C22.5489 7.22581 23.3982 7.40827 24.2011 7.76764L25.0186 8.13306L25.497 7.37651C27.5943 4.0504 31.1835 2.06452 35.0968 2.06452C40.7228 2.06452 45.5504 6.26663 46.3276 11.8402L46.497 13.0529L47.6633 12.6825C48.2767 12.4864 48.9103 12.3871 49.5484 12.3871C52.9642 12.3871 55.7419 15.1648 55.7419 18.5806C55.7419 21.9965 52.9642 24.7742 49.5484 24.7742H43.3548V26.8387H49.5484C54.1018 26.8387 57.8064 23.1341 57.8064 18.5806H58.8387C60.5459 18.5806 61.9355 19.9703 61.9355 21.6774V49.5484H2.06452V21.6774C2.06452 19.9703 3.45413 18.5806 5.16129 18.5806ZM43.3548 61.9355H20.6452V57.8064H43.3548V61.9355ZM58.8387 55.7419H5.16129C3.45413 55.7419 2.06452 54.3523 2.06452 52.6452V51.6129H61.9355V52.6452C61.9355 54.3523 60.5459 55.7419 58.8387 55.7419Z" fill="#2D9CDB"/>
<path d="M33.0322 41.4803V36.129H30.9677V41.4803C29.7691 41.9078 28.9032 43.0433 28.9032 44.3871C28.9032 46.0943 30.2928 47.4839 32 47.4839C33.7071 47.4839 35.0968 46.0943 35.0968 44.3871C35.0968 43.0433 34.2308 41.9078 33.0322 41.4803V41.4803ZM32 45.4194C31.4314 45.4194 30.9677 44.9566 30.9677 44.3871C30.9677 43.8175 31.4314 43.3548 32 43.3548C32.5685 43.3548 33.0322 43.8175 33.0322 44.3871C33.0322 44.9566 32.5685 45.4194 32 45.4194Z" fill="#2D9CDB"/>
<path d="M30.9677 19.6129H33.0322V34.0645H30.9677V19.6129Z" fill="#2D9CDB"/>
<path d="M41.2903 23.7419H39.2258V40.2581H49.7384C50.1658 41.4567 51.3014 42.3226 52.6452 42.3226C54.3523 42.3226 55.7419 40.933 55.7419 39.2258C55.7419 37.5187 54.3523 36.129 52.6452 36.129C51.3014 36.129 50.1658 36.995 49.7384 38.1936H41.2903V23.7419ZM52.6452 38.1936C53.2137 38.1936 53.6774 38.6563 53.6774 39.2258C53.6774 39.7954 53.2137 40.2581 52.6452 40.2581C52.0766 40.2581 51.6129 39.7954 51.6129 39.2258C51.6129 38.6563 52.0766 38.1936 52.6452 38.1936Z" fill="#2D9CDB"/>
<path d="M39.2258 19.6129H41.2903V21.6774H39.2258V19.6129Z" fill="#2D9CDB"/>
<path d="M11.3548 42.3226C12.6986 42.3226 13.8342 41.4566 14.2616 40.258H24.7742V28.9032H22.7097V38.1935H14.2616C13.8342 36.9949 12.6986 36.129 11.3548 36.129C9.64767 36.129 8.25806 37.5186 8.25806 39.2258C8.25806 40.9329 9.64767 42.3226 11.3548 42.3226ZM11.3548 38.1935C11.9234 38.1935 12.3871 38.6562 12.3871 39.2258C12.3871 39.7953 11.9234 40.258 11.3548 40.258C10.7863 40.258 10.3226 39.7953 10.3226 39.2258C10.3226 38.6562 10.7863 38.1935 11.3548 38.1935Z" fill="#2D9CDB"/>
<path d="M22.7097 19.6129H24.7742V26.8387H22.7097V19.6129Z" fill="#2D9CDB"/>
</svg>
