<svg width="64" height="64" viewBox="0 0 64 64" fill="none" xmlns="http://www.w3.org/2000/svg">
<path d="M60.8 0H24.5333C22.7661 0 21.3333 1.43281 21.3333 3.2V14.3583C18.0932 13.3396 14.5615 13.9245 11.8229 15.9339C9.08438 17.9432 7.46667 21.137 7.46667 24.5333V25.6C7.46667 26.1438 7.87552 26.6005 8.41615 26.6604L8.51719 26.6667C6.75 26.6708 5.32083 28.1073 5.32552 29.8745C5.32969 31.6422 6.76615 33.0708 8.53333 33.0667V35.2C8.53646 37.7333 10.3182 39.9161 12.8 40.4266V42.7219C5.58438 43.2833 0.0119792 49.2958 0 56.5333V62.9333C0 63.5224 0.477604 64 1.06667 64H35.2C35.7891 64 36.2667 63.5224 36.2667 62.9333V56.5333C36.2552 49.2958 30.6828 43.2823 23.4667 42.7208V40.4266C24.7359 40.1604 25.8641 39.4396 26.6391 38.4H60.8C62.5672 38.4 64 36.9672 64 35.2V3.2C64 1.43281 62.5672 0 60.8 0ZM24.5333 2.13333H60.8C61.3891 2.13333 61.8667 2.61094 61.8667 3.2V6.4H23.4667V3.2C23.4667 2.61094 23.9443 2.13333 24.5333 2.13333ZM18.1333 16C22.8198 16.0052 26.6271 19.7844 26.6667 24.4703C23.7479 23.9625 21.0427 22.6089 18.8865 20.5781C18.4698 20.1625 17.7958 20.1625 17.3792 20.5781C15.3432 22.7854 12.5828 24.1891 9.6 24.5333C9.60521 19.8229 13.4229 16.0052 18.1333 16ZM19.2 26.6667H17.0667C17.0667 26.0776 16.5891 25.6 16 25.6H13.8271C15.413 24.9021 16.8745 23.9505 18.1547 22.7828C19.5401 23.9411 21.0875 24.8901 22.7479 25.6H20.2667C19.6776 25.6 19.2 26.0776 19.2 26.6667ZM10.6667 27.7333H14.9333V29.8667H10.6667V27.7333ZM21.3333 27.7333H25.6V29.8667H21.3333V27.7333ZM27.7333 28.8C28.3224 28.8 28.8 29.2776 28.8 29.8667C28.8 30.4557 28.3224 30.9333 27.7333 30.9333V28.8ZM7.46667 29.8667C7.46667 29.2776 7.94427 28.8 8.53333 28.8V30.9333C7.94427 30.9333 7.46667 30.4557 7.46667 29.8667ZM21.3333 43.3589L18.1333 47.3599L14.9333 43.3599V40.5333H21.3333V43.3589ZM34.1333 56.5333V61.8667H29.8667V56.5333H27.7333V61.8667H8.53333V56.5333H6.4V61.8667H2.13333V56.5333C2.14375 50.2516 7.0974 45.0911 13.374 44.8245L17.3005 49.7313C17.5026 49.9844 17.8094 50.1318 18.1333 50.1318C18.4573 50.1318 18.7641 49.9844 18.9661 49.7313L22.8927 44.8245C29.1693 45.0911 34.1229 50.2516 34.1333 56.5333ZM25.6 35.2C25.6 36.9672 24.1672 38.4 22.4 38.4H13.8667C12.0995 38.4 10.6667 36.9672 10.6667 35.2V32H16C16.5891 32 17.0667 31.5224 17.0667 30.9333V28.8H19.2V30.9333C19.2 31.5224 19.6776 32 20.2667 32H25.6V35.2ZM60.8 36.2667H27.6266C27.6979 35.9156 27.7339 35.5583 27.7333 35.2V33.0667C29.5005 33.0667 30.9333 31.6339 30.9333 29.8667C30.9333 28.0995 29.5005 26.6667 27.7333 26.6667C28.3224 26.6667 28.8 26.1891 28.8 25.6V24.5333C28.7948 20.7276 26.7625 17.2125 23.4667 15.3099V8.53333H61.8667V35.2C61.8667 35.7891 61.3891 36.2667 60.8 36.2667Z" fill="#F2C94C"/>
<path d="M25.6 3.19995H27.7333V5.33328H25.6V3.19995Z" fill="#F2C94C"/>
<path d="M29.8667 3.19995H32V5.33328H29.8667V3.19995Z" fill="#F2C94C"/>
<path d="M34.1333 3.19995H36.2667V5.33328H34.1333V3.19995Z" fill="#F2C94C"/>
<path d="M36.5792 17.3792L33.3792 20.5791C32.963 20.9958 32.963 21.6708 33.3792 22.0875L36.5792 25.2875L38.0875 23.7791L35.6417 21.3333L38.0875 18.8875L36.5792 17.3792Z" fill="#F2C94C"/>
<path d="M50.8875 17.3792L49.3792 18.8875L51.825 21.3333L49.3792 23.7791L50.8875 25.2875L54.0875 22.0875C54.5036 21.6708 54.5036 20.9958 54.0875 20.5791L50.8875 17.3792Z" fill="#F2C94C"/>
<path d="M40.6115 26.2715L44.874 15.6038L46.8552 16.3954L42.5927 27.0631L40.6115 26.2715Z" fill="#F2C94C"/>
</svg>
