<svg width="32" height="32" viewBox="0 0 32 32" fill="none" xmlns="http://www.w3.org/2000/svg">
<g clip-path="url(#clip0)">
<path d="M16 -1.39876e-06C24.8225 -6.27477e-07 32 7.1775 32 16C32 24.8225 24.8225 32 16 32C7.1775 32 6.27477e-07 24.8225 1.39876e-06 16C2.17005e-06 7.1775 7.1775 -2.17005e-06 16 -1.39876e-06ZM16 30.9149C24.2235 30.9149 30.9149 24.2243 30.9149 16C30.9149 7.77647 24.2235 1.08509 16 1.08509C7.77503 1.08509 1.08509 7.77647 1.08509 16C1.08509 24.2242 7.77502 30.9149 16 30.9149Z" fill="#F2C94C"/>
<path d="M18.0088 10.3818C18.1477 10.3818 18.2866 10.4346 18.3922 10.5409C18.6042 10.7521 18.6042 11.0965 18.3922 11.3084L13.4761 16.2304L18.3922 21.1516C18.6035 21.3636 18.6035 21.7079 18.3922 21.9192C18.1803 22.1311 17.8367 22.1311 17.6247 21.9192L12.3259 16.6145C12.1139 16.4026 12.1139 16.059 12.3259 15.847L17.6247 10.5424C17.7311 10.4346 17.87 10.3818 18.0088 10.3818Z" fill="#F2C94C"/>
</g>
<defs>
<clipPath id="clip0">
<rect width="32" height="32" fill="white" transform="translate(32 32) rotate(-180)"/>
</clipPath>
</defs>
</svg>
