<svg width="38" height="38" viewBox="0 0 38 38" fill="none" xmlns="http://www.w3.org/2000/svg">
<path d="M19 0C8.52369 0 0 8.52296 0 19C0 29.477 8.52369 38 19 38C29.4763 38 38 29.477 38 19C38 8.52296 29.4763 0 19 0ZM28.1346 20.4615H20.4615V28.5C20.4615 29.3068 19.8068 29.9615 19 29.9615C18.1932 29.9615 17.5385 29.3068 17.5385 28.5V20.4615H9.86538C9.05862 20.4615 8.40385 19.8068 8.40385 19C8.40385 18.1932 9.05862 17.5385 9.86538 17.5385H17.5385V10.2308C17.5385 9.424 18.1932 8.76923 19 8.76923C19.8068 8.76923 20.4615 9.424 20.4615 10.2308V17.5385H28.1346C28.9414 17.5385 29.5962 18.1932 29.5962 19C29.5962 19.8068 28.9414 20.4615 28.1346 20.4615Z" fill="white"/>
</svg>
