<svg width="44" height="44" viewBox="0 0 44 44" fill="none" xmlns="http://www.w3.org/2000/svg">
<path d="M22 34.6758C23.1865 34.6758 24.1484 33.7139 24.1484 32.5273C24.1484 31.3408 23.1865 30.3789 22 30.3789C20.8135 30.3789 19.8516 31.3408 19.8516 32.5273C19.8516 33.7139 20.8135 34.6758 22 34.6758Z" fill="url(#paint0_linear)"/>
<path d="M22 0C9.84122 0 0 9.83959 0 22C0 34.1588 9.83959 44 22 44C34.1588 44 44 34.1604 44 22C44 9.84122 34.1604 0 22 0ZM22 40.5625C11.741 40.5625 3.4375 32.2603 3.4375 22C3.4375 11.741 11.7397 3.4375 22 3.4375C32.259 3.4375 40.5625 11.7397 40.5625 22C40.5625 32.259 32.2603 40.5625 22 40.5625Z" fill="url(#paint1_linear)"/>
<path d="M22 11.043C18.2091 11.043 15.125 14.1271 15.125 17.918C15.125 18.8672 15.8945 19.6367 16.8438 19.6367C17.793 19.6367 18.5625 18.8672 18.5625 17.918C18.5625 16.0225 20.1046 14.4805 22 14.4805C23.8954 14.4805 25.4375 16.0225 25.4375 17.918C25.4375 19.8134 23.8954 21.3555 22 21.3555C21.0507 21.3555 20.2812 22.125 20.2812 23.0742V27.3711C20.2812 28.3204 21.0507 29.0898 22 29.0898C22.9493 29.0898 23.7188 28.3204 23.7188 27.3711V24.5755C26.6807 23.8104 28.875 21.1156 28.875 17.918C28.875 14.1271 25.7909 11.043 22 11.043Z" fill="url(#paint2_linear)"/>
<defs>
<linearGradient id="paint0_linear" x1="19.8516" y1="30.3789" x2="22.2962" y2="35.5512" gradientUnits="userSpaceOnUse">
<stop stop-color="#3961D2"/>
<stop offset="1" stop-color="#1F43C2"/>
</linearGradient>
<linearGradient id="paint1_linear" x1="0" y1="0" x2="25.0327" y2="52.9645" gradientUnits="userSpaceOnUse">
<stop stop-color="#3961D2"/>
<stop offset="1" stop-color="#1F43C2"/>
</linearGradient>
<linearGradient id="paint2_linear" x1="15.125" y1="11.043" x2="27.03" y2="30.2344" gradientUnits="userSpaceOnUse">
<stop stop-color="#3961D2"/>
<stop offset="1" stop-color="#1F43C2"/>
</linearGradient>
</defs>
</svg>
