<svg width="32" height="32" viewBox="0 0 32 32" fill="none" xmlns="http://www.w3.org/2000/svg">
<path d="M16 32C7.1775 32 0 24.8225 0 16C0 7.1775 7.1775 0 16 0C24.8225 0 32 7.1775 32 16C32 24.8225 24.8225 32 16 32ZM16 1.08509C7.77647 1.08509 1.08509 7.77575 1.08509 16C1.08509 24.2235 7.77647 30.9149 16 30.9149C24.225 30.9149 30.9149 24.2235 30.9149 16C30.9149 7.77575 24.225 1.08509 16 1.08509Z" fill="#F2C94C"/>
<path d="M13.9912 21.6182C13.8523 21.6182 13.7134 21.5654 13.6078 21.4591C13.3958 21.2479 13.3958 20.9035 13.6078 20.6916L18.5239 15.7696L13.6078 10.8484C13.3965 10.6364 13.3965 10.2921 13.6078 10.0808C13.8197 9.86889 14.1633 9.86889 14.3753 10.0808L19.6741 15.3855C19.8861 15.5974 19.8861 15.941 19.6741 16.153L14.3753 21.4576C14.2689 21.5654 14.13 21.6182 13.9912 21.6182Z" fill="#F2C94C"/>
</svg>
