<svg width="64" height="64" viewBox="0 0 64 64" fill="none" xmlns="http://www.w3.org/2000/svg">
<g clip-path="url(#clip0)">
<path d="M61.8667 35.2002L54.6133 35.1924C55.5479 33.5742 55.7251 31.627 55.0977 29.8667H55.4668C56.645 29.8667 57.6001 28.9116 57.6001 27.7334V5.3335C57.5967 2.38916 55.2109 0.00341798 52.2666 0H5.3335C2.38916 0.00341798 0.00341798 2.38916 0 5.3335V51.2002C0.00341798 54.144 2.38916 56.5298 5.3335 56.5332H27.7334C28.9116 56.5332 29.8667 55.5781 29.8667 54.3999L29.9072 47.6523C30.5801 47.8862 31.2876 48.0039 32 48C34.1699 47.998 36.1904 46.8936 37.3633 45.0679C37.9019 44.8618 38.083 44.813 38.064 44.813C40.2026 44.6699 42.124 46.1123 42.5835 48.2061C42.8442 49.4702 42.5166 50.7852 41.6929 51.7793C40.5479 53.1313 38.6973 53.6553 37.0132 53.103C36.3418 52.8711 35.5996 52.9761 35.0186 53.3848C34.4604 53.7778 34.1299 54.4189 34.1333 55.1021V61.8667C34.1333 63.0449 35.0884 64 36.2666 64H58.6665C61.6108 63.9966 63.9966 61.6108 64 58.6665V37.3335C64 36.1553 63.0449 35.2002 61.8667 35.2002V35.2002ZM55.4668 5.3335V27.7334H53.8359C52.605 26.3472 50.8296 25.5679 48.9761 25.6001C49.2007 24.2354 48.9878 22.835 48.3682 21.5991C47.5088 19.9087 45.937 18.6929 44.0854 18.2856C42.1865 17.8569 40.1953 18.3149 38.6743 19.5303C37.1533 20.7456 36.2676 22.5864 36.2666 24.5332C36.2617 25.6641 36.5752 26.7729 37.1724 27.7334H29.873L29.9136 20.9868C33.041 22.0654 36.4741 20.5752 37.8218 17.5542C38.0908 16.9805 38.271 16.3687 38.355 15.7407C38.6367 13.5356 37.7544 11.3423 36.0234 9.94678C34.2925 8.55176 31.9619 8.15479 29.8667 8.89795V2.1333H52.2666C54.0342 2.1333 55.4668 3.56592 55.4668 5.3335ZM43.5723 35.2002H36.2666C35.6978 35.1997 35.1528 35.4277 34.7529 35.8325C33.2241 35.0996 31.4668 35.0024 29.8667 35.5625V29.8667H37.1724C37.9204 29.8745 38.6138 29.4771 38.9858 28.8276C39.3638 28.1553 39.3574 27.3335 38.9697 26.6665C38.1167 25.1943 38.2202 23.3555 39.2334 21.9883C40.2461 20.6211 41.9751 19.9863 43.6318 20.3735C44.854 20.6396 45.8921 21.4409 46.46 22.5557C47.0146 23.667 47.0659 24.9629 46.6016 26.1152C44.2173 27.0967 42.6626 29.4219 42.6665 32C42.6616 33.1309 42.9756 34.2397 43.5723 35.2002V35.2002ZM2.1333 5.3335C2.1333 3.56592 3.56592 2.1333 5.3335 2.1333H27.7334V8.89795C27.7285 9.58008 28.0571 10.2212 28.6133 10.6152C29.1938 11.0259 29.9365 11.1309 30.6079 10.897C32.2437 10.3574 34.0439 10.833 35.2002 12.1099C35.8086 12.7915 36.1787 13.6528 36.2549 14.563C36.2808 14.8701 36.2749 15.1792 36.2368 15.4849C35.9653 17.4341 34.4116 18.9541 32.4565 19.1831C31.8325 19.248 31.2017 19.1753 30.6089 18.9697C29.939 18.7363 29.1968 18.8413 28.6177 19.251C28.0601 19.644 27.7295 20.2852 27.7334 20.9673V27.7388L20.4492 27.7749C20.5054 27.6777 20.5396 27.5713 20.5918 27.4722C21.4683 25.8213 21.5728 23.8682 20.877 22.1338C20.1812 20.3989 18.7563 19.0591 16.9824 18.4717C16.7261 18.3838 16.4639 18.3125 16.1982 18.2583C15.9634 18.2139 15.7261 18.1821 15.4878 18.1631H15.4751C15.2969 18.1484 15.1201 18.1377 14.9419 18.1377C14.9097 18.1377 14.8789 18.145 14.8457 18.146C14.5469 18.1509 14.2485 18.1763 13.9531 18.2217C13.856 18.2368 13.7622 18.2583 13.667 18.2773C13.4175 18.3271 13.1709 18.3916 12.9292 18.4702C12.8628 18.4917 12.7959 18.5078 12.7305 18.5312C12.4404 18.6396 12.1582 18.7686 11.8857 18.9175C11.8125 18.958 11.7388 19.0005 11.666 19.0444C11.3906 19.2041 11.1279 19.3853 10.8799 19.585L10.8628 19.5967C10.6787 19.749 10.5029 19.9111 10.3359 20.082C9.17773 21.2739 8.53076 22.8711 8.5332 24.5332C8.53223 25.54 8.78613 26.5308 9.27051 27.4136C9.32715 27.52 9.37695 27.6265 9.43799 27.7334H2.1333V5.3335ZM30.6133 45.6372C29.9429 45.4023 29.2007 45.5063 28.6206 45.917C28.061 46.3105 27.7295 46.9531 27.7334 47.6372V54.3999H5.3335C3.56592 54.3999 2.1333 52.9673 2.1333 51.2002V29.8667H9.43994C9.62451 29.8667 9.80762 29.8428 9.98633 29.7964C10.519 29.6553 10.9731 29.3062 11.2471 28.8276C11.5439 28.3018 11.606 27.6753 11.4185 27.1006C11.3735 26.9438 11.3115 26.7925 11.2344 26.6484C11.1416 26.4917 11.0601 26.3281 10.9897 26.1602C10.3872 24.6997 10.6401 23.0259 11.6484 21.8096C12.6562 20.5933 14.2539 20.0332 15.8003 20.354C16.0044 20.3936 16.2051 20.4487 16.4009 20.5186C17.5625 20.9404 18.4829 21.8477 18.9214 23.0029C19.3604 24.1587 19.2739 25.4478 18.6846 26.5342C18.6572 26.5864 18.6401 26.6411 18.6089 26.6934C18.5229 26.8428 18.4561 27.002 18.4097 27.168C18.4097 27.1787 18.3999 27.1885 18.397 27.1987C18.3882 27.23 18.397 27.2617 18.3838 27.293C18.269 27.7979 18.3481 28.3281 18.606 28.7778C18.6294 28.8193 18.6646 28.8491 18.6899 28.8843C19.084 29.4917 19.7563 29.8608 20.48 29.8667H27.7334V35.5625C27.7285 36.2461 28.0576 36.8882 28.6152 37.2832C29.1978 37.6948 29.9434 37.7983 30.6152 37.5605C31.7852 37.1758 33.063 37.3013 34.1353 37.9062V43.2002C34.1396 43.7993 34.3979 44.3687 34.8457 44.7671C34.0659 45.4727 33.0518 45.8643 32 45.8667C31.5283 45.8696 31.0591 45.792 30.6133 45.6372V45.6372ZM61.8667 58.6665C61.8667 60.4341 60.4341 61.8667 58.6665 61.8667H36.2666L36.3169 55.1221C38.7754 55.9644 41.499 55.2363 43.2095 53.2798C44.9194 51.3228 45.2769 48.5264 44.1138 46.2026C42.9502 43.8789 40.4976 42.4893 37.9062 42.686C37.3374 42.7764 36.7852 42.9497 36.2666 43.2002V37.3335H43.5723C44.3203 37.3408 45.0142 36.9434 45.3857 36.2944C45.7637 35.6221 45.7573 34.7998 45.3696 34.1333C44.728 33.0171 44.6245 31.6714 45.0884 30.4702C45.5518 29.2695 46.5327 28.3423 47.7578 27.9468H47.772C48.189 27.8066 48.6265 27.7344 49.0669 27.7334C50.4087 27.7378 51.6714 28.3691 52.48 29.4399C53.0396 30.1758 53.3394 31.0757 53.3335 32C53.333 32.7466 53.1362 33.48 52.7637 34.127C52.3755 34.7964 52.3716 35.6211 52.7529 36.2944C53.1245 36.9434 53.8184 37.3408 54.5664 37.3335H61.8667V58.6665Z" fill="#2D9CDB"/>
<path d="M5.3335 32C4.74414 32 4.2666 32.4775 4.2666 33.0669V50.1333C4.2666 50.7227 4.74414 51.2002 5.3335 51.2002C5.92236 51.2002 6.3999 50.7227 6.3999 50.1333V33.0669C6.3999 32.4775 5.92236 32 5.3335 32Z" fill="#2D9CDB"/>
<path d="M5.3335 5.3335C4.74414 5.3335 4.2666 5.81104 4.2666 6.3999V21.3335C4.2666 21.9224 4.74414 22.3999 5.3335 22.3999C5.92236 22.3999 6.3999 21.9224 6.3999 21.3335V6.3999C6.3999 5.81104 5.92236 5.3335 5.3335 5.3335Z" fill="#2D9CDB"/>
</g>
<defs>
<clipPath id="clip0">
<rect width="64" height="64" fill="white"/>
</clipPath>
</defs>
</svg>
