<svg width="64" height="64" viewBox="0 0 64 64" fill="none" xmlns="http://www.w3.org/2000/svg">
<path d="M52.1422 55.2221H48.1671C47.0777 55.2323 46.2486 54.9261 45.6334 54.2737C44.1749 52.727 44.3712 49.7475 44.3804 49.621C44.3834 49.5746 44.3853 49.5297 44.3853 49.4833V24.582C44.3853 24.0643 43.9654 23.6443 43.4478 23.6443C42.9297 23.6443 42.5103 24.0643 42.5103 24.582L42.5098 49.4872C42.4913 49.749 42.4439 50.691 42.6216 51.8343C42.8658 53.4063 43.42 54.66 44.2696 55.5605C45.251 56.6017 46.5674 57.115 48.1797 57.0969H52.1422C52.1763 57.0969 52.2047 57.1253 52.2047 57.1594V62.0622C52.2047 62.0963 52.1763 62.1247 52.1422 62.1247H33.7491C33.2315 62.1247 32.8116 62.5442 32.8116 63.0623C32.8116 63.58 33.2315 64 33.7491 64H52.1422C53.2105 64 54.0797 63.1307 54.0797 62.0622V57.1594C54.0797 56.0914 53.2105 55.2221 52.1422 55.2221V55.2221Z" fill="#2D9CDB"/>
<path d="M62.0626 0H12.483C11.4146 0 10.5455 0.869293 10.5455 1.93784V20.5407C10.5455 21.6093 11.4146 22.4786 12.483 22.4786H18.6124C19.5465 22.4786 20.3477 21.811 20.5177 20.8914C20.8756 18.9579 22.1661 14.4029 26.4161 13.8652C26.4215 13.8642 26.4268 13.8642 26.4322 13.8642H30.0977C30.1324 13.8642 30.1602 13.8926 30.1602 13.9268V49.4833C30.1602 49.5307 30.1617 49.5761 30.1651 49.6215C30.1744 49.7475 30.3702 52.7275 28.9117 54.2737C28.2965 54.9261 27.4659 55.2363 26.3658 55.2216H22.4034C21.3351 55.2216 20.4659 56.0909 20.4659 57.1594V62.0622C20.4659 63.1307 21.3351 64 22.4034 64H27.9996C28.5172 64 28.9371 63.58 28.9371 63.0623C28.9371 62.5442 28.5172 62.1247 27.9996 62.1247H22.4034C22.3687 62.1247 22.3409 62.0963 22.3409 62.0622V57.1594C22.3409 57.1253 22.3687 57.0969 22.4034 57.0969H26.3531C27.9713 57.1218 29.294 56.6017 30.276 55.5605C32.2179 53.5016 32.0821 50.1401 32.0352 49.4833V13.9268C32.0352 12.8582 31.1661 11.9889 30.0977 11.9889H26.4322C26.3477 11.9889 26.2643 11.9943 26.1817 12.0045C23.8106 12.3044 21.8311 13.6171 20.4576 15.8001C19.3429 17.5724 18.8614 19.5371 18.6744 20.55C18.6685 20.5812 18.6432 20.6032 18.6124 20.6032H12.483C12.4483 20.6032 12.4205 20.5749 12.4205 20.5407V1.93784C12.4205 1.90365 12.4483 1.87533 12.483 1.87533H62.0626C62.0968 1.87533 62.1251 1.90365 62.1251 1.93784V20.5407C62.1251 20.5749 62.0968 20.6032 62.0626 20.6032H55.9332C55.9024 20.6032 55.877 20.5812 55.8717 20.5505C55.6842 19.5371 55.2027 17.5724 54.088 15.8001C52.7144 13.6171 50.735 12.3044 48.3624 12.0045C48.2813 11.9943 48.1974 11.9889 48.1134 11.9889H44.4478C43.3795 11.9889 42.5103 12.8582 42.5103 13.9268V18.7064C42.5103 19.2241 42.9298 19.6441 43.4478 19.6441C43.9654 19.6441 44.3853 19.2241 44.3853 18.7064V13.9268C44.3853 13.8926 44.4132 13.8642 44.4478 13.8642H48.1134C48.1187 13.8642 48.1241 13.8642 48.128 13.8647C52.3795 14.4029 53.67 18.9579 54.0274 20.8918C54.1978 21.811 54.9991 22.4786 55.9332 22.4786H62.0626C63.131 22.4786 64.0001 21.6093 64.0001 20.5407V1.93784C64.0001 0.869293 63.131 0 62.0626 0V0Z" fill="#2D9CDB"/>
<path d="M7.43799 1.87533C7.95557 1.87533 8.37549 1.45582 8.37549 0.937665C8.37549 0.419507 7.95557 0 7.43799 0H0.9375C0.419922 0 0 0.419507 0 0.937665V63.0623C0 63.58 0.419922 64 0.9375 64H7.43799C7.95557 64 8.37549 63.58 8.37549 63.0623C8.37549 62.5442 7.95557 62.1247 7.43799 62.1247H1.875V60.243H4.18799C4.70557 60.243 5.12549 59.8235 5.12549 59.3053C5.12549 58.7872 4.70557 58.3677 4.18799 58.3677H1.875V55.7017H7.43799C7.95557 55.7017 8.37549 55.2822 8.37549 54.764C8.37549 54.2458 7.95557 53.8263 7.43799 53.8263H1.875V51.1603H4.18799C4.70557 51.1603 5.12549 50.7408 5.12549 50.2227C5.12549 49.7045 4.70557 49.285 4.18799 49.285H1.875V46.619H4.18799C4.70557 46.619 5.12549 46.1995 5.12549 45.6814C5.12549 45.1632 4.70557 44.7437 4.18799 44.7437H1.875V42.0777H4.18799C4.70557 42.0777 5.12549 41.6582 5.12549 41.14C5.12549 40.6224 4.70557 40.2024 4.18799 40.2024H1.875V37.5364H7.43799C7.95557 37.5364 8.37549 37.1169 8.37549 36.5987C8.37549 36.081 7.95557 35.661 7.43799 35.661H1.875V32.995H4.18799C4.70557 32.995 5.12549 32.5755 5.12549 32.0574C5.12549 31.5392 4.70557 31.1197 4.18799 31.1197H1.875V28.4537H4.18799C4.70557 28.4537 5.12549 28.0342 5.12549 27.5161C5.12549 26.9979 4.70557 26.5784 4.18799 26.5784H1.875V23.9124H4.18799C4.70557 23.9124 5.12549 23.4929 5.12549 22.9747C5.12549 22.4566 4.70557 22.0371 4.18799 22.0371H1.875V19.3711H7.43799C7.95557 19.3711 8.37549 18.9516 8.37549 18.4334C8.37549 17.9157 7.95557 17.4957 7.43799 17.4957H1.875V14.8293H4.18799C4.70557 14.8293 5.12549 14.4098 5.12549 13.8916C5.12549 13.3739 4.70557 12.9539 4.18799 12.9539H1.875V10.2879H4.18799C4.70557 10.2879 5.12549 9.86843 5.12549 9.35027C5.12549 8.8326 4.70557 8.41261 4.18799 8.41261H1.875V5.74661H4.18799C4.70557 5.74661 5.12549 5.32711 5.12549 4.80895C5.12549 4.29128 4.70557 3.87128 4.18799 3.87128H1.875V1.87533H7.43799Z" fill="#2D9CDB"/>
</svg>
