<svg width="64" height="64" viewBox="0 0 64 64" fill="none" xmlns="http://www.w3.org/2000/svg">
<path d="M54.3733 21.007C53.8112 11.407 45.8976 3.7334 36.3563 3.7334C30.5643 3.7334 24.9557 6.57393 21.4805 11.2086C21.4005 11.167 21.3152 11.1382 21.2341 11.0987C21.0251 10.9974 20.8139 10.9014 20.5973 10.815C20.4715 10.7649 20.3435 10.7201 20.2155 10.6753C20.0053 10.6017 19.792 10.5366 19.5755 10.4779C19.4475 10.4438 19.3205 10.4086 19.1915 10.3787C18.9568 10.3254 18.7179 10.2849 18.4768 10.2497C18.3648 10.2326 18.2539 10.2113 18.1408 10.1985C17.7877 10.1579 17.4304 10.1334 17.0667 10.1334C11.7739 10.1334 7.46667 14.4395 7.46667 19.7334C7.46667 19.871 7.4752 20.0054 7.48373 20.1398C3.04747 22.5579 0 27.6257 0 32.6977C0 40.2529 6.14613 46.4001 13.7013 46.4001H19.2C19.7888 46.4001 20.2667 45.9233 20.2667 45.3334C20.2667 44.7435 19.7888 44.2667 19.2 44.2667H13.7013C7.32267 44.2667 2.13333 39.0774 2.13333 32.6977C2.13333 28.2667 5.01867 23.6673 8.99413 21.7611L9.6 21.4721V20.8001C9.6 20.6689 9.60853 20.5345 9.616 20.4001L9.6256 20.2155L9.6128 20.0001C9.6064 19.9115 9.6 19.823 9.6 19.7334C9.6 15.6171 12.9493 12.2667 17.0667 12.2667C17.3963 12.2667 17.7216 12.2955 18.0448 12.3382C18.128 12.3489 18.2112 12.3627 18.2944 12.3766C18.5792 12.4235 18.8597 12.4854 19.136 12.5643C19.1733 12.575 19.2117 12.5825 19.2491 12.5931C19.5531 12.6859 19.8496 12.8043 20.1397 12.9355C20.2144 12.9697 20.288 13.0059 20.3616 13.0422C20.6187 13.1691 20.8704 13.3089 21.1136 13.4667C23.168 14.799 24.5333 17.1083 24.5333 19.7334C24.5333 20.3233 25.0112 20.8001 25.6 20.8001C26.1888 20.8001 26.6667 20.3233 26.6667 19.7334C26.6667 16.7958 25.3376 14.1665 23.2533 12.4043C26.3104 8.40433 31.3472 5.86673 36.3563 5.86673C44.6165 5.86673 51.4795 12.4107 52.1941 20.6795C51.104 20.6027 49.4709 20.5633 47.8389 20.8129C47.2565 20.9014 46.8565 21.4454 46.9451 22.0278C47.0251 22.5558 47.4795 22.9345 47.9979 22.9345C48.0512 22.9345 48.1056 22.9302 48.16 22.9217C50.5323 22.5633 53.0059 22.8993 53.1563 22.9195C58.1227 23.8635 61.8667 28.4385 61.8667 33.5702C61.8667 39.4678 57.0677 44.2667 51.1701 44.2667H46.9333C46.3445 44.2667 45.8667 44.7435 45.8667 45.3334C45.8667 45.9233 46.3445 46.4001 46.9333 46.4001H51.1701C58.2443 46.4001 64 40.6443 64 33.5702C64 27.7153 59.9179 22.4641 54.3733 21.007Z" fill="#2D9CDB"/>
<path d="M40.8458 36.4876C41.0538 36.6956 41.3269 36.8001 41.6 36.8001C41.873 36.8001 42.1461 36.6956 42.3541 36.4876C42.7712 36.0705 42.7712 35.3964 42.3541 34.9793L33.8218 26.447C33.7237 26.3478 33.6053 26.27 33.4741 26.2156C33.2138 26.1078 32.9194 26.1078 32.6592 26.2156C32.528 26.27 32.4106 26.3478 32.3114 26.447L23.7792 34.9793C23.3621 35.3964 23.3621 36.0705 23.7792 36.4876C23.9872 36.6956 24.2602 36.8001 24.5333 36.8001C24.8064 36.8001 25.0794 36.6956 25.2874 36.4876L32 29.775V56.6252L25.2874 49.9126C24.8704 49.4956 24.1962 49.4956 23.7792 49.9126C23.3621 50.3297 23.3621 51.0038 23.7792 51.4209L32.3114 59.9532C32.4096 60.0524 32.528 60.1302 32.6592 60.1846C32.7893 60.238 32.928 60.2668 33.0666 60.2668C33.2053 60.2668 33.344 60.238 33.4741 60.1846C33.6053 60.1302 33.7226 60.0524 33.8218 59.9532L42.3541 51.4209C42.7712 51.0038 42.7712 50.3297 42.3541 49.9126C41.937 49.4956 41.2629 49.4956 40.8458 49.9126L34.1333 56.6252V29.775L40.8458 36.4876Z" fill="#2D9CDB"/>
</svg>
