<svg width="64" height="64" viewBox="0 0 64 64" fill="none" xmlns="http://www.w3.org/2000/svg">
<g clip-path="url(#clip0)">
<path d="M59.7335 12.8C57.3804 12.8 55.4669 14.7137 55.4669 17.0667C55.4669 19.4197 57.3805 21.3333 59.7335 21.3333C62.0865 21.3333 64.0002 19.4198 64.0002 17.0667C64.0002 14.7137 62.0865 12.8 59.7335 12.8ZM59.7335 19.2001C58.557 19.2001 57.6002 18.2433 57.6002 17.0667C57.6002 15.8902 58.5569 14.9333 59.7335 14.9333C60.9102 14.9333 61.8669 15.89 61.8669 17.0667C61.8668 18.2433 60.91 19.2001 59.7335 19.2001Z" fill="#2D9CDB"/>
<path d="M4.26662 48C1.91363 48 0 49.9136 0 52.2666C0 54.6196 1.91363 56.5332 4.26662 56.5332C6.61975 56.5332 8.53325 54.6196 8.53325 52.2666C8.53325 49.9136 6.61975 48 4.26662 48ZM4.26662 54.4C3.09012 54.4 2.13325 53.4432 2.13325 52.2666C2.13325 51.09 3.09 50.1333 4.26662 50.1333C5.44312 50.1333 6.4 51.09 6.4 52.2666C6.4 53.4432 5.44325 54.4 4.26662 54.4Z" fill="#2D9CDB"/>
<path d="M57.665 14.1482L48.4629 9.70554C47.9316 9.44842 47.2949 9.67242 47.0389 10.2027C46.7829 10.7328 47.0057 11.3707 47.536 11.6267L56.7381 16.0693C56.8875 16.1418 57.0453 16.1759 57.201 16.1759C57.5977 16.1759 57.9786 15.954 58.162 15.5722C58.418 15.042 58.1951 14.4042 57.665 14.1482Z" fill="#2D9CDB"/>
<path d="M48.0001 55.4666C45.647 55.4666 43.7335 57.3802 43.7335 59.7332C43.7335 62.0862 45.647 63.9999 48.0001 63.9999C50.3532 63.9999 52.2667 62.0863 52.2667 59.7333C52.2667 57.3803 50.3532 55.4666 48.0001 55.4666ZM48.0001 61.8666C46.8236 61.8666 45.8667 60.9098 45.8667 59.7332C45.8667 58.5566 46.8236 57.5999 48.0001 57.5999C49.1766 57.5999 50.1335 58.5567 50.1335 59.7333C50.1335 60.9099 49.1766 61.8666 48.0001 61.8666Z" fill="#2D9CDB"/>
<path d="M45.9315 56.8151L36.7294 52.3725C36.1981 52.1153 35.5614 52.3383 35.3054 52.8696C35.0494 53.3997 35.2723 54.0376 35.8025 54.2936L45.0047 58.7362C45.154 58.8087 45.3119 58.8428 45.4675 58.8428C45.8643 58.8428 46.2452 58.621 46.4287 58.2391C46.6845 57.7088 46.4617 57.0711 45.9315 56.8151Z" fill="#2D9CDB"/>
<path d="M32.0001 28.8C29.647 28.8 27.7335 30.7137 27.7335 33.0667C27.7335 35.4198 29.6471 37.3333 32.0001 37.3333C34.3532 37.3333 36.2667 35.4197 36.2667 33.0667C36.2667 30.7137 34.3532 28.8 32.0001 28.8ZM32.0001 35.2C30.8236 35.2 29.8667 34.2433 29.8667 33.0667C29.8667 31.8902 30.8235 30.9333 32.0001 30.9333C33.1766 30.9333 34.1335 31.89 34.1335 33.0667C34.1335 34.2433 33.1766 35.2 32.0001 35.2Z" fill="#2D9CDB"/>
<path d="M30.1246 30.2677L23.0559 24.7584C22.5908 24.3989 21.921 24.4789 21.5583 24.944C21.1966 25.4091 21.2788 26.0789 21.7439 26.4416L28.8126 31.951C29.0079 32.1025 29.2383 32.1761 29.4676 32.1761C29.7855 32.1761 30.0991 32.0354 30.3103 31.7655C30.6719 31.3002 30.5898 30.6304 30.1246 30.2677Z" fill="#2D9CDB"/>
<path d="M51.2001 27.7334C44.7307 27.7334 39.4667 32.9974 39.4667 39.4668C39.4667 45.9361 44.7307 51.2001 51.2001 51.2001C57.6694 51.2001 62.9334 45.9361 62.9334 39.4668C62.9334 32.9974 57.6694 27.7334 51.2001 27.7334ZM51.2001 49.0666C45.9062 49.0666 41.6001 44.7605 41.6001 39.4666C41.6001 34.1728 45.9062 29.8666 51.2001 29.8666C56.4939 29.8666 60.8001 34.1728 60.8001 39.4666C60.8001 44.7605 56.4939 49.0666 51.2001 49.0666Z" fill="#2D9CDB"/>
<path d="M51.2 32C48.8469 32 46.9334 33.9136 46.9334 36.2666C46.9334 38.6197 48.847 40.5332 51.2 40.5332C53.5531 40.5332 55.4666 38.6196 55.4666 36.2666C55.4666 33.9136 53.5531 32 51.2 32ZM51.2 38.4C50.0235 38.4 49.0666 37.4432 49.0666 36.2666C49.0666 35.0901 50.0234 34.1333 51.2 34.1333C52.3765 34.1333 53.3334 35.09 53.3334 36.2666C53.3334 37.4432 52.3765 38.4 51.2 38.4Z" fill="#2D9CDB"/>
<path d="M54.2947 42.6665H48.1059C46.2831 42.6665 44.8003 44.1098 44.8003 45.8825V48.6943C44.8003 49.075 45.0029 49.427 45.3326 49.618C47.1203 50.6526 49.1491 51.1999 51.2003 51.1999C53.2516 51.1999 55.2803 50.6526 57.0681 49.618C57.3977 49.4281 57.6003 49.075 57.6003 48.6954V45.8836C57.6003 44.1098 56.1177 42.6665 54.2947 42.6665ZM55.4669 48.0585C52.8121 49.3811 49.5886 49.3811 46.9336 48.0585V45.8836C46.9336 45.2863 47.4594 44.7999 48.1058 44.7999H54.2946C54.9409 44.7999 55.4668 45.2863 55.4668 45.8836V48.0585H55.4669Z" fill="#2D9CDB"/>
<path d="M25.5999 40.5334C19.1305 40.5334 13.8665 45.7974 13.8665 52.2668C13.8665 58.7362 19.1305 64.0001 25.5999 64.0001C32.0692 64.0001 37.3332 58.7361 37.3332 52.2667C37.3332 45.7973 32.0692 40.5334 25.5999 40.5334ZM25.5999 61.8667C20.306 61.8667 15.9999 57.5606 15.9999 52.2667C15.9999 46.9728 20.306 42.6667 25.5999 42.6667C30.8937 42.6667 35.1999 46.9728 35.1999 52.2667C35.1999 57.5606 30.8937 61.8667 25.5999 61.8667Z" fill="#2D9CDB"/>
<path d="M25.6 44.8C23.2469 44.8 21.3334 46.7137 21.3334 49.0667C21.3334 51.4198 23.247 53.3333 25.6 53.3333C27.953 53.3333 29.8667 51.4197 29.8667 49.0667C29.8667 46.7137 27.9532 44.8 25.6 44.8ZM25.6 51.2C24.4235 51.2 23.4667 50.2433 23.4667 49.0667C23.4667 47.8902 24.4234 46.9333 25.6 46.9333C26.7765 46.9333 27.7334 47.89 27.7334 49.0667C27.7334 50.2433 26.7765 51.2 25.6 51.2Z" fill="#2D9CDB"/>
<path d="M28.694 55.4666H22.5053C20.6824 55.4666 19.1997 56.9098 19.1997 58.6826V61.4943C19.1997 61.8751 19.4023 62.2271 19.7319 62.4181C21.5197 63.4527 23.5484 63.9999 25.5997 63.9999C27.6509 63.9999 29.6797 63.4527 31.4674 62.4181C31.7971 62.2282 31.9997 61.8752 31.9997 61.4954V58.6837C31.9997 56.9098 30.517 55.4666 28.694 55.4666ZM29.8663 60.8586C27.2113 62.1812 23.9879 62.1812 21.3329 60.8586V58.6837C21.3329 58.0863 21.8588 57.5999 22.5052 57.5999H28.6939C29.3403 57.5999 29.8662 58.0863 29.8662 58.6837V60.8586H29.8663Z" fill="#2D9CDB"/>
<path d="M11.7334 13.8667C5.264 13.8667 0 19.1307 0 25.6001C0 32.0694 5.264 37.3334 11.7334 37.3334C18.2027 37.3334 23.4667 32.0694 23.4667 25.6001C23.4666 19.1307 18.2026 13.8667 11.7334 13.8667ZM11.7334 35.2001C6.4395 35.2001 2.13337 30.8939 2.13337 25.6001C2.13337 20.3062 6.4395 16.0001 11.7334 16.0001C17.0272 16.0001 21.3334 20.3062 21.3334 25.6001C21.3334 30.8939 17.0272 35.2001 11.7334 35.2001Z" fill="#2D9CDB"/>
<path d="M11.7335 18.1333C9.38042 18.1333 7.46692 20.0469 7.46692 22.3999C7.46692 24.7529 9.38054 26.6665 11.7335 26.6665C14.0867 26.6665 16.0002 24.7529 16.0002 22.3999C16.0002 20.0469 14.0865 18.1333 11.7335 18.1333ZM11.7335 24.5333C10.557 24.5333 9.60017 23.5766 9.60017 22.3999C9.60017 21.2233 10.5569 20.2666 11.7335 20.2666C12.91 20.2666 13.8669 21.2233 13.8669 22.3999C13.8669 23.5766 12.91 24.5333 11.7335 24.5333Z" fill="#2D9CDB"/>
<path d="M14.8278 28.8H8.63903C6.81616 28.8 5.3334 30.2433 5.3334 32.016V34.8278C5.3334 35.2086 5.53603 35.5605 5.86565 35.7515C7.65341 36.7862 9.68216 37.3334 11.7334 37.3334C13.7847 37.3334 15.8134 36.7862 17.6012 35.7515C17.9308 35.5617 18.1334 35.2086 18.1334 34.8289V32.0172C18.1334 30.2433 16.6507 28.8 14.8278 28.8ZM16 34.1921C13.3452 35.5147 10.1217 35.5147 7.46666 34.1921V32.0172C7.46666 31.4198 7.99253 30.9334 8.63891 30.9334H14.8277C15.474 30.9334 15.9999 31.4198 15.9999 32.0172V34.1921H16Z" fill="#2D9CDB"/>
<path d="M37.3333 0C30.864 0 25.6 5.264 25.6 11.7334C25.6 18.2027 30.864 23.4667 37.3333 23.4667C43.8027 23.4667 49.0667 18.2027 49.0667 11.7334C49.0666 5.264 43.8026 0 37.3333 0ZM37.3333 21.3334C32.0395 21.3334 27.7333 17.0272 27.7333 11.7334C27.7333 6.4395 32.0395 2.13337 37.3333 2.13337C42.6272 2.13337 46.9333 6.4395 46.9333 11.7334C46.9333 17.0272 42.6272 21.3334 37.3333 21.3334Z" fill="#2D9CDB"/>
<path d="M37.3335 4.2666C34.9804 4.2666 33.0669 6.18023 33.0669 8.53323C33.0669 10.8862 34.9805 12.7999 37.3335 12.7999C39.6865 12.7999 41.6001 10.8864 41.6001 8.53335C41.6001 6.18035 39.6865 4.2666 37.3335 4.2666ZM37.3335 10.6666C36.157 10.6666 35.2001 9.70985 35.2001 8.53323C35.2001 7.35673 36.1569 6.39985 37.3335 6.39985C38.5101 6.39985 39.4669 7.3566 39.4669 8.53323C39.4667 9.70985 38.51 10.6666 37.3335 10.6666Z" fill="#2D9CDB"/>
<path d="M40.4275 14.9333H34.2388C32.4159 14.9333 30.9331 16.3766 30.9331 18.1493V20.9611C30.9331 21.3418 31.1358 21.6938 31.4654 21.8848C33.2531 22.9195 35.2819 23.4667 37.3331 23.4667C39.3844 23.4667 41.4131 22.9195 43.2009 21.8848C43.5305 21.695 43.7331 21.3418 43.7331 20.9622V18.1505C43.7331 16.3765 42.2504 14.9333 40.4275 14.9333ZM41.5997 20.3253C38.9449 21.648 35.7214 21.648 33.0664 20.3253V18.1505C33.0664 17.5531 33.5923 17.0667 34.2386 17.0667H40.4274C41.0737 17.0667 41.5996 17.5531 41.5996 18.1505V20.3253H41.5997Z" fill="#2D9CDB"/>
<path d="M27.4784 11.0389C27.0955 10.5931 26.4224 10.5397 25.9744 10.9227L18.5824 17.2481C18.1344 17.6309 18.0821 18.3041 18.465 18.7521C18.6762 18.9985 18.9749 19.1255 19.2756 19.1255C19.521 19.1255 19.7674 19.0412 19.969 18.8683L27.361 12.543C27.8091 12.1601 27.8614 11.4869 27.4784 11.0389Z" fill="#2D9CDB"/>
<path d="M50.9866 28.161L44.5866 19.6277C44.2335 19.1552 43.5647 19.0623 43.0932 19.4143C42.6217 19.7674 42.5268 20.4362 42.8798 20.9065L49.2798 29.4399C49.49 29.7194 49.81 29.8665 50.1342 29.8665C50.3561 29.8665 50.5812 29.7971 50.7732 29.6531C51.2447 29.3001 51.3397 28.6314 50.9866 28.161Z" fill="#2D9CDB"/>
<path d="M42.2325 42.994C41.8793 42.5225 41.2106 42.4276 40.7391 42.7806L34.7807 47.2489C34.3092 47.602 34.2143 48.2708 34.5673 48.7411C34.7775 49.0206 35.0975 49.1678 35.4217 49.1678C35.6446 49.1678 35.8686 49.0974 36.0607 48.9544L42.0191 44.4861C42.4906 44.1333 42.5856 43.4644 42.2325 42.994Z" fill="#2D9CDB"/>
<path d="M14.9334 51.2H7.46666C6.87791 51.2 6.40004 51.6767 6.40004 52.2666C6.40004 52.8565 6.87791 53.3332 7.46666 53.3332H14.9333C15.522 53.3332 15.9999 52.8565 15.9999 52.2666C15.9999 51.6767 15.5222 51.2 14.9334 51.2Z" fill="#2D9CDB"/>
<path d="M11.7334 0C9.3803 0 7.46667 1.91363 7.46667 4.26662C7.46667 6.61975 9.3803 8.53325 11.7333 8.53325C14.0864 8.53325 15.9999 6.61962 15.9999 4.26662C16 1.91363 14.0864 0 11.7334 0ZM11.7334 6.4C10.5569 6.4 9.60005 5.44325 9.60005 4.26662C9.60005 3.09012 10.5568 2.13325 11.7334 2.13325C12.9099 2.13325 13.8668 3.09 13.8668 4.26662C13.8667 5.44325 12.9099 6.4 11.7334 6.4Z" fill="#2D9CDB"/>
<path d="M11.7334 6.3999C11.1447 6.3999 10.6668 6.87665 10.6668 7.46653V14.9332C10.6668 15.523 11.1447 15.9998 11.7334 15.9998C12.3222 15.9998 12.8001 15.523 12.8001 14.9332V7.46653C12.8001 6.87665 12.3222 6.3999 11.7334 6.3999Z" fill="#2D9CDB"/>
</g>
<defs>
<clipPath id="clip0">
<rect width="64" height="64" fill="white"/>
</clipPath>
</defs>
</svg>
