<svg width="64" height="64" viewBox="0 0 64 64" fill="none" xmlns="http://www.w3.org/2000/svg">
<g clip-path="url(#clip0)">
<path d="M63.6732 24.996C63.4157 24.6958 63.0397 24.5227 62.6423 24.5227H59.8221V9.3183C59.8221 8.27676 58.975 7.42964 57.9335 7.42964H25.1745L22.5199 3.00601C22.1812 2.43983 21.5606 2.08838 20.9004 2.08838H6.16068C5.1202 2.08945 4.27308 2.93657 4.27308 3.97705V24.5217H1.35782C0.962565 24.5217 0.58654 24.6936 0.329092 24.9928C0.0705749 25.2919 -0.0447962 25.6882 0.0150259 26.0824L5.26869 60.7589C5.37231 61.4265 5.93634 61.9104 6.61041 61.9104H57.3887C58.0638 61.9104 58.6278 61.4265 58.7315 60.7557L63.984 26.0866C64.0449 25.6946 63.9317 25.2972 63.6732 24.996ZM6.40958 4.22595H20.7605L23.4151 8.64958C23.7537 9.21575 24.3744 9.56721 25.0345 9.56721H57.6856V24.5227H56.6174V20.2497H55.5491V17.045H54.4809V13.8402H9.61433V17.045H8.54608V20.2497H7.47783V24.5227H6.40958V4.22595ZM9.61433 22.3862H54.4809V24.5227H9.61433V22.3862ZM10.6826 19.1815H53.4126V20.2497H10.6826V19.1815ZM52.3444 17.045H11.7508V15.9767H52.3444V17.045ZM56.7199 59.775H7.2802L2.26369 26.6592H4.27308H7.47783H56.6174H59.8221H61.7375L56.7199 59.775Z" fill="#2D9CDB"/>
<path d="M28.7959 54.4338H51.2291V39.4783H28.7959V54.4338V54.4338ZM30.9324 41.6148H49.0926V52.2973H30.9324V41.6148V41.6148Z" fill="#2D9CDB"/>
<path d="M34.1371 45.8877H38.4101C39.0008 45.8877 39.4784 45.4102 39.4784 44.8195C39.4784 44.2287 39.0008 43.7512 38.4101 43.7512H34.1371C33.5464 43.7512 33.0688 44.2287 33.0688 44.8195C33.0688 45.4102 33.5464 45.8877 34.1371 45.8877Z" fill="#2D9CDB"/>
<path d="M42.6831 45.8877H43.7514C44.3421 45.8877 44.8196 45.4102 44.8196 44.8195C44.8196 44.2287 44.3421 43.7512 43.7514 43.7512H42.6831C42.0924 43.7512 41.6149 44.2287 41.6149 44.8195C41.6149 45.4102 42.0924 45.8877 42.6831 45.8877Z" fill="#2D9CDB"/>
<path d="M45.8879 48.0242H34.1371C33.5464 48.0242 33.0688 48.5017 33.0688 49.0924C33.0688 49.6832 33.5464 50.1607 34.1371 50.1607H45.8879C46.4786 50.1607 46.9561 49.6832 46.9561 49.0924C46.9561 48.5017 46.4786 48.0242 45.8879 48.0242Z" fill="#2D9CDB"/>
</g>
<defs>
<clipPath id="clip0">
<rect width="64" height="64" fill="white"/>
</clipPath>
</defs>
</svg>
